<svg version="1.1" id="Layer_1" xmlns="http://www.w3.org/2000/svg" xmlns:xlink="http://www.w3.org/1999/xlink" x="0px" y="0px"
         viewBox="0 0 100 100.3" style="enable-background:new 0 0 100 100.3;" xml:space="preserve">
    <path d="M76.7,61h3.9C79.5,75.5,68.3,87.2,54,89.1V45.3h13.4v-8H54v-10c5-1.7,8.7-6.4,8.7-12c0-7-5.7-12.7-12.7-12.7
    S37.3,8.3,37.3,15.3c0,5.6,3.6,10.3,8.7,12v10H32.6v8H46v43.8C31.7,87.2,20.5,75.5,19.4,61h3.9l-8-13.8L7.3,61h4.1
    c1.2,20.3,18,36.4,38.6,36.4S87.4,81.3,88.6,61h4.1l-8-13.8L76.7,61z M50,20c-2.6,0-4.7-2.1-4.7-4.7s2.1-4.7,4.7-4.7
    c2.6,0,4.7,2.1,4.7,4.7S52.6,20,50,20z"/>
</svg>