<svg version="1.1" id="Layer_1" xmlns="http://www.w3.org/2000/svg" xmlns:xlink="http://www.w3.org/1999/xlink" x="0px" y="0px"
         viewBox="0 0 100 100" style="enable-background:new 0 0 100 100;" xml:space="preserve">
    <g transform="translate(0,-952.36218)">
        <path d="M42,956.9c-1.4,0-2.7,1.3-2.9,2.4l-1.6,9c-3.5,1.3-6.7,3.1-9.6,5.4l-8.5-3.3c-1.3-0.5-2.9,0.1-3.7,1.2l-8.3,13.7
            C6.7,986.5,7,988.1,8,989l6.7,6c-0.4,2.2-0.7,4.5-0.7,6.8c0,2.3,0.3,4.6,0.7,6.8l-6.7,6c-1.1,0.9-1.3,2.6-0.6,3.8l8.3,13.7
            c0.7,1.2,2.4,1.7,3.7,1.2l8.5-3.2c2.9,2.3,6.1,4,9.6,5.3l1.6,9c0.2,1.4,1.5,2.5,2.9,2.5h16c1.4,0,2.7-1.1,3-2.5l1.6-9
            c3.5-1.3,6.7-3.1,9.6-5.3l8.5,3.2c1.3,0.5,2.9,0,3.6-1.2l8.3-13.7c0.7-1.2,0.5-2.9-0.6-3.8l-6.7-6c0.4-2.2,0.7-4.5,0.7-6.8
            c0-2.3-0.3-4.6-0.7-6.8l6.7-6c1-0.9,1.3-2.6,0.6-3.8l-8.3-13.7c-0.7-1.2-2.3-1.7-3.6-1.2l-8.5,3.3c-2.9-2.3-6.1-4.1-9.6-5.4l-1.6-9
            c-0.3-1.4-1.6-2.4-3-2.4L42,956.9L42,956.9z M44.5,962.9h11l1.5,8c0.2,1.1,1,2,2.1,2.3c4,1.3,7.6,3.4,10.7,6.1
            c0.8,0.7,2,0.9,3.1,0.5l7.6-2.9l5.7,9.4l-6.1,5.4c-0.8,0.7-1.2,1.9-0.9,3c0.6,2.3,0.8,4.7,0.8,7.2s-0.3,4.9-0.8,7.2
            c-0.3,1,0.1,2.2,0.9,2.9l6.1,5.5l-5.8,9.4l-7.6-2.9c-1-0.4-2.2-0.2-3.1,0.5c-3.1,2.7-6.7,4.8-10.7,6.1c-1,0.3-1.9,1.2-2.1,2.3
            l-1.5,8.1h-11l-1.5-8.1c-0.2-1.1-1-2-2.1-2.3c-4-1.3-7.6-3.4-10.7-6.1c-0.8-0.7-2-0.9-3.1-0.5l-7.7,2.9l-5.7-9.4l6.1-5.4
            c0.8-0.7,1.2-1.9,0.9-2.9c-0.6-2.3-0.9-4.7-0.9-7.2c0-2.5,0.3-4.9,0.9-7.2c0.3-1.1-0.1-2.2-0.9-3l-6.1-5.4l5.8-9.4l7.6,2.9
            c1,0.4,2.2,0.2,3.1-0.5c3.1-2.7,6.7-4.8,10.7-6.1c1-0.3,1.9-1.2,2.1-2.3L44.5,962.9z M50,980.9c-11.6,0-21,9.4-21,21
            c0,11.6,9.4,21,21,21c11.6,0,21-9.4,21-21C71,990.3,61.6,980.9,50,980.9z M50,986.9c8.3,0,15,6.7,15,15c0,8.3-6.7,15-15,15
            s-15-6.7-15-15C35,993.5,41.7,986.9,50,986.9z"/>
    </g>
</svg>