<svg version="1.1" xmlns="http://www.w3.org/2000/svg" xmlns:xlink="http://www.w3.org/1999/xlink" x="0px" y="0px"
     viewBox="0 0 300 300" style="enable-background:new 0 0 300 300;" xml:space="preserve">
    <path d="M105.4,223.6H74.3v-99.5h31.1V223.6z M89.1,111.6h-0.2c-11.2,0-18.5-7.6-18.5-17.3c0-9.8,7.5-17.3,19-17.3
        c11.5,0,18.5,7.4,18.7,17.3C108.1,104,100.8,111.6,89.1,111.6z M229.8,223.6h-35.3v-51.5c0-13.5-5.5-22.7-17.6-22.7
        c-9.3,0-14.4,6.2-16.8,12.2c-0.9,2.1-0.8,5.1-0.8,8.1v53.9h-34.9c0,0,0.5-91.2,0-99.5h34.9v15.6c2.1-6.8,13.2-16.6,31-16.6
        c22.1,0,39.4,14.3,39.4,45.1V223.6z"/>
</svg>