<svg version="1.1" xmlns="http://www.w3.org/2000/svg" xmlns:xlink="http://www.w3.org/1999/xlink" x="0px" y="0px"
     viewBox="0 0 300 300" style="enable-background:new 0 0 300 300;" xml:space="preserve">
    <path d="M246.2,91.3c-7.1,3.1-14.7,5.3-22.7,6.2c8.2-4.9,14.4-12.6,17.3-21.8c-7.6,4.5-16.1,7.8-25.1,9.6
        c-7.2-7.7-17.4-12.5-28.8-12.5c-21.8,0-39.4,17.7-39.4,39.4c0,3.1,0.3,6.1,1,9c-32.8-1.7-61.8-17.3-81.3-41.2
        C63.9,85.9,62,92.6,62,99.9c0,13.7,7,25.8,17.5,32.8c-6.5-0.2-12.5-2-17.9-4.9v0.5c0,19.1,13.6,35.1,31.7,38.7
        c-3.3,0.9-6.8,1.4-10.4,1.4c-2.5,0-5-0.2-7.4-0.7c5,15.7,19.6,27.1,36.8,27.4c-13.5,10.6-30.5,16.9-49,16.9c-3.2,0-6.3-0.2-9.4-0.5
        c17.5,11.2,38.2,17.7,60.5,17.7c72.6,0,112.3-60.1,112.3-112.2c0-1.7,0-3.4-0.1-5.1C234.2,106.2,240.9,99.2,246.2,91.3"/>
</svg>