<svg version="1.1" id="svg-dropdown-arrow" xmlns="http://www.w3.org/2000/svg" xmlns:xlink="http://www.w3.org/1999/xlink" x="0px" y="0px"
     viewBox="0 0 841.9 595.3" class="category-svg-fill" xml:space="preserve">
    <path d="M475.5,423l-43.2,43.2c-3.9,3.9-10.3,3.9-14.1,0L124.4,172.5c-3.9-3.9-3.9-10.3,0-14.1l43.2-43.2c3.9-3.9,10.3-3.9,14.1,0
    l293.7,293.7C479.4,412.7,479.4,419.1,475.5,423z"/>
    <path d="M417.9,466.2L374.7,423c-3.9-3.9-3.9-10.3,0-14.1l293.7-293.7c3.9-3.9,10.3-3.9,14.1,0l43.2,43.2c3.9,3.9,3.9,10.3,0,14.1
    L432.1,466.2C428.2,470.1,421.8,470.1,417.9,466.2z"/>
</svg>