<?xml version="1.0" encoding="utf-8"?>
<svg version="1.1" id="Layer_1" xmlns="http://www.w3.org/2000/svg" xmlns:xlink="http://www.w3.org/1999/xlink" x="0px" y="0px"
	 viewBox="0 301 612 221" enable-background="new 0 301 612 221" xml:space="preserve">
<g>
	<path d="M606.7,497.1c0,11.7-9.5,21.1-21.1,21.1H26.4c-11.7,0-21.1-9.5-21.1-21.1V326.9c0-11.7,9.5-21.1,21.1-21.1h559.1
		c11.7,0,21.1,9.5,21.1,21.1v170.2H606.7z"/>
	<path fill="#FFFFFF" d="M167.7,410.3c0-17.8,14.5-26.7,15.6-27.3c-8.3-12.2-21.7-13.9-26.1-13.9c-11.1-1.1-21.7,6.7-27.3,6.7
		c-5.6,0-14.5-6.7-23.4-6.1c-11.7,0-23.4,7.2-29.5,17.8c-12.8,21.7-3.3,54,8.9,71.8c6.1,8.9,13.4,18.4,22.3,17.8s12.2-5.6,23.4-5.6
		s13.9,5.6,23.4,5.6c10,0,16.1-8.9,21.7-17.2c7.2-10,10-19.5,10-20C186.7,439.3,167.7,432,167.7,410.3z"/>
	<path fill="#FFFFFF" d="M149.9,358c5-6.1,8.3-14.5,7.2-22.8c-7.2,0.6-16.1,5-21.1,10.6c-4.5,5-8.3,13.9-7.2,21.7
		C136.6,368,144.9,363.6,149.9,358z"/>
	<g>
		<path fill="#FFFFFF" d="M261.2,406.4c0,2.2-0.6,3.9-2.2,5c-1.7,1.1-3.3,2.2-5.6,2.2c-2.2,0-3.9-0.6-5-2.2c-1.1-1.1-2.2-2.8-2.2-5
			s0.6-3.9,2.2-5c1.7-1.1,3.3-2.2,5-2.2c2.2,0,3.9,0.6,5,2.2C260.7,403.1,261.2,404.8,261.2,406.4z M260.1,476h-11.7v-53.4h11.7V476
			z"/>
		<path fill="#FFFFFF" d="M324.1,412H303v64h-11.7v-64h-21.1v-10h54.5L324.1,412L324.1,412z"/>
		<path fill="#FFFFFF" d="M373.6,476H363l-0.6-8.3l0,0c-3.9,6.1-9.5,9.5-16.7,9.5c-5,0-9.5-1.7-12.8-5c-3.9-3.9-5.6-10-5.6-18.4
			v-31.2H339v29.5c0,10,3.3,15.6,10.6,15.6c5,0,8.9-2.8,11.1-7.8c0.6-1.1,0.6-2.8,0.6-4.5v-32.8H373v37.8
			C373,465.4,373,471,373.6,476z"/>
		<path fill="#FFFFFF" d="M435.9,476h-11.7v-30.6c0-9.5-3.3-13.9-10.6-13.9c-3.3,0-6.1,1.1-8.3,3.9c-2.2,2.8-3.3,5.6-3.3,8.9V476
			h-11.7v-38.4c0-4.5,0-10-0.6-15h10.6l0.6,8.3h0.6c1.7-2.8,3.3-4.5,6.1-6.1c3.3-2.2,6.7-2.8,10.6-2.8c5,0,8.9,1.7,12.2,5
			c3.9,3.9,6.1,10,6.1,17.8L435.9,476L435.9,476z"/>
		<path fill="#FFFFFF" d="M496.6,446.5c0,2.2,0,3.9-0.6,5.6h-35.6c0,5,1.7,9.5,5,12.2c2.8,2.2,6.7,3.9,11.7,3.9s10-0.6,14.5-2.8
			l1.7,8.3c-5,2.2-11.1,3.3-17.8,3.3c-8.3,0-15-2.2-19.5-7.2s-7.2-11.7-7.2-19.5s2.2-15,6.7-20c4.5-5.6,10.6-8.3,18.9-8.3
			c7.8,0,13.4,2.8,17.2,8.3C494.9,434.3,496.6,439.8,496.6,446.5z M484.9,443.7c0-3.3-0.6-6.7-2.2-8.9c-2.2-3.3-5-5-9.5-5
			c-3.9,0-7.2,1.7-9.5,5c-2.2,2.8-3.3,5.6-3.3,9.5L484.9,443.7L484.9,443.7z"/>
		<path fill="#FFFFFF" d="M542.2,460.4c0,5-1.7,8.9-5.6,12.2c-3.9,2.8-8.9,4.5-15,4.5s-11.1-1.1-15.6-3.9l2.8-8.9
			c3.9,2.2,8.3,3.9,13.4,3.9c6.1,0,8.9-2.2,8.9-6.7c0-2.2-0.6-3.3-2.2-5c-1.1-1.1-3.9-2.8-7.2-3.9c-9.5-3.3-14.5-8.9-14.5-15.6
			c0-4.5,1.7-8.3,5-11.7c3.3-3.3,8.3-4.5,13.9-4.5c5,0,10,1.1,13.4,3.3l-2.8,8.3c-3.3-2.2-7.2-3.3-11.1-3.3c-2.2,0-4.5,0.6-5.6,1.7
			c-1.7,1.1-2.2,2.8-2.2,4.5s0.6,3.3,2.2,4.5c1.1,1.1,3.9,2.2,7.2,3.9C537.7,448.2,542.2,453.2,542.2,460.4z"/>
	</g>
	<g>
		<path fill="#FFFFFF" d="M256.2,375.3c-3.3,0-6.1,0-8.3-0.6v-34.5c2.8-0.6,6.1-0.6,9.5-0.6c12.8,0,18.9,6.7,18.9,16.7
			C276.8,369.2,269.6,375.3,256.2,375.3z M258.4,344.7c-1.7,0-3.3,0-4.5,0.6v26.1c0.6,0,2.2,0,3.9,0c8.3,0,13.4-5,13.4-13.9
			C270.7,349.1,266.8,344.7,258.4,344.7z"/>
		<path fill="#FFFFFF" d="M293.5,375.8c-7.2,0-12.2-5.6-12.2-12.8c0-7.8,5-13.4,12.2-13.4s12.2,5,12.2,12.8
			C306.3,370.3,301.3,375.8,293.5,375.8z M294,353.6c-3.9,0-6.7,3.9-6.7,8.9s2.8,8.9,6.7,8.9c3.9,0,6.7-3.9,6.7-8.9
			C300.2,357.5,297.9,353.6,294,353.6z"/>
		<path fill="#FFFFFF" d="M345.2,350.2l-7.8,25h-5l-3.3-11.1c-0.6-2.8-1.7-5.6-2.2-8.3l0,0c-0.6,2.8-1.1,5.6-2.2,8.3l-3.3,11.1h-5
			l-7.2-25h5.6l2.8,11.7c0.6,2.8,1.1,5.6,1.7,7.8l0,0c0.6-2.2,1.1-5,2.2-7.8l3.3-12.2h4.5l3.3,11.7c0.6,2.8,1.7,5.6,2.2,8.3l0,0
			c0.6-2.8,1.1-5.6,1.7-8.3l2.8-11.7C339.7,350.2,345.2,350.2,345.2,350.2z"/>
		<path fill="#FFFFFF" d="M372.5,375.3h-5.6v-14.5c0-4.5-1.7-6.7-5-6.7s-5.6,2.8-5.6,6.1v15h-5.6v-17.8c0-2.2,0-4.5,0-7.2h5v3.9l0,0
			c1.7-2.8,4.5-4.5,7.8-4.5c5,0,8.9,3.9,8.9,10.6v15.1H372.5z"/>
		<path fill="#FFFFFF" d="M385.8,375.3h-5.6v-36.7h5.6V375.3z"/>
		<path fill="#FFFFFF" d="M404.2,375.8c-7.2,0-12.2-5.6-12.2-12.8c0-7.8,5-13.4,12.2-13.4s12.2,5,12.2,12.8
			C417,370.3,412,375.8,404.2,375.8z M404.8,353.6c-3.9,0-6.7,3.9-6.7,8.9s2.8,8.9,6.7,8.9s6.7-3.9,6.7-8.9S408.6,353.6,404.8,353.6
			z"/>
		<path fill="#FFFFFF" d="M437,375.3l-0.6-2.8l0,0c-1.7,2.2-4.5,3.3-7.2,3.3c-4.5,0-7.8-3.3-7.8-7.2c0-6.1,5.6-9.5,14.5-9.5v-0.6
			c0-3.3-1.7-5-5-5c-2.2,0-4.5,0.6-6.7,1.7l-1.1-3.9c2.2-1.7,5-2.2,8.9-2.2c6.7,0,10,3.3,10,10.6v9.5c0,2.8,0,4.5,0.6,6.1H437
			L437,375.3z M436.5,362.5c-6.1,0-9.5,1.7-9.5,5c0,2.8,1.7,3.9,3.9,3.9c2.8,0,5.6-2.2,5.6-5V362.5z"/>
		<path fill="#FFFFFF" d="M466.5,375.3v-3.9l0,0c-1.7,2.8-4.5,4.5-7.8,4.5c-6.1,0-10.6-5.6-10.6-12.8c0-7.8,4.5-13.4,11.1-13.4
			c3.3,0,5.6,1.1,7.2,3.3l0,0v-14.5h5.6v30c0,2.2,0,4.5,0,6.7L466.5,375.3L466.5,375.3z M466,360.3c0-3.3-2.2-6.7-6.1-6.7
			s-6.7,3.9-6.7,8.9s2.8,8.3,6.7,8.3c3.3,0,6.1-2.8,6.1-6.7C466,364.7,466,360.3,466,360.3z"/>
		<path fill="#FFFFFF" d="M502.1,375.8c-7.2,0-12.2-5.6-12.2-12.8c0-7.8,5-13.4,12.2-13.4s12.2,5,12.2,12.8S509.4,375.8,502.1,375.8
			z M502.1,353.6c-3.9,0-6.7,3.9-6.7,8.9s2.8,8.9,6.7,8.9c3.9,0,6.7-3.9,6.7-8.9S506,353.6,502.1,353.6z"/>
		<path fill="#FFFFFF" d="M541.6,375.3H536v-14.5c0-4.5-1.7-6.7-5-6.7s-5.6,2.8-5.6,6.1v15h-5.6v-17.8c0-2.2,0-4.5,0-7.2h5v3.9l0,0
			c1.7-2.8,4.5-4.5,7.8-4.5c5,0,8.9,3.9,8.9,10.6L541.6,375.3L541.6,375.3z"/>
	</g>
</g>
</svg>
