<?xml version="1.0" encoding="utf-8"?>
<svg version="1.1" id="Layer_1" xmlns="http://www.w3.org/2000/svg" xmlns:xlink="http://www.w3.org/1999/xlink" x="0px" y="0px"
	 viewBox="0 0 8.3 8.3" style="enable-background:new 0 0 8.3 8.3;" xml:space="preserve">
	<path d="M8,1.4L1.4,8C1.1,8.3,0.6,8.3,0.3,8l0,0c-0.3-0.3-0.3-0.8,0-1.1l6.7-6.7C7.2,0,7.7,0,8,0.3l0,0C8.3,0.6,8.3,1.1,8,1.4z"/>
	<path d="M1.4,0.3L8,6.9C8.3,7.2,8.3,7.7,8,8l0,0C7.7,8.3,7.2,8.3,6.9,8L0.3,1.4c-0.3-0.3-0.3-0.8,0-1.1l0,0C0.6,0,1.1,0,1.4,0.3z"/>
</svg>
