<?xml version="1.0" encoding="utf-8"?>
<svg version="1.1" id="Layer_1" xmlns="http://www.w3.org/2000/svg" xmlns:xlink="http://www.w3.org/1999/xlink" x="0px" y="0px"
	 viewBox="0 0 11.1 9.6" style="enable-background:new 0 0 11.1 9.6;" xml:space="preserve">
	<path d="M10.3,1.6H0.8C0.4,1.6,0,1.2,0,0.8v0C0,0.4,0.4,0,0.8,0h9.4C10.7,0,11,0.4,11,0.8v0C11,1.2,10.7,1.6,10.3,1.6z"/>
	<path d="M10.3,5.6H0.8C0.4,5.6,0,5.2,0,4.8v0C0,4.4,0.4,4,0.8,4h9.4C10.7,4,11,4.4,11,4.8v0C11,5.2,10.7,5.6,10.3,5.6z"/>
	<path d="M10.3,5.6H0.8C0.4,5.6,0,5.2,0,4.8v0C0,4.4,0.4,4,0.8,4h9.4C10.7,4,11,4.4,11,4.8v0C11,5.2,10.7,5.6,10.3,5.6z"/>
	<path d="M10.3,9.6H0.8C0.4,9.6,0,9.2,0,8.8v0C0,8.4,0.4,8,0.8,8h9.4C10.7,8,11,8.4,11,8.8v0C11,9.2,10.7,9.6,10.3,9.6z"/>
</svg>
