<svg version="1.1" id="svg-fisk-section" xmlns="http://www.w3.org/2000/svg" xmlns:xlink="http://www.w3.org/1999/xlink" x="0px" y="0px"
	 viewBox="0 0 77.5 40" xml:space="preserve" fill="#49a3c3">
<g>
	<path d="M0.1,39.6V0.1h17.5v6.8H7.3v9.5h9.5v6.7H7.3v16.5H0.1z"/>
	<path d="M20.7,39.6V0.1h7.6v39.5H20.7z"/>
	<path d="M31.5,9.1c0-2.9,0.9-5.2,2.7-6.9c1.8-1.7,4.2-2.5,7.5-2.5c1.6,0,2.9,0.2,4,0.7c1.1,0.4,2,1,2.8,1.7
		c0.7,0.7,1.3,1.6,1.8,2.5s0.7,2,0.8,3.1c0,0.2,0.1,0.5,0.1,0.8c0.1,0.3,0.1,0.7,0.1,1.1c0.1,0.4,0.1,0.8,0.1,1.2s0,0.7,0,1h-6.9
		c0-0.5,0-1-0.1-1.5c0-0.5-0.1-1-0.1-1.7c-0.1-0.8-0.3-1.4-0.7-1.9c-0.4-0.5-1-0.7-2-0.7c-1,0-1.6,0.3-2.2,0.7
		c-0.5,0.5-0.7,1.2-0.7,2.3c0,1.4,0.4,2.6,1.1,3.6c0.7,1,1.7,2,2.8,3.1c0.3,0.2,0.5,0.5,0.9,0.8c0.3,0.3,0.7,0.6,1,0.9
		c0.3,0.3,0.7,0.6,0.9,0.9c0.3,0.3,0.5,0.5,0.7,0.7c0.8,0.8,1.6,1.6,2.3,2.5c0.7,0.8,1.2,1.6,1.7,2.5c0.5,0.8,0.8,1.8,1,2.9
		c0.3,1,0.3,2.2,0.3,3.5c0,3.1-0.9,5.4-2.7,7.1c-1.8,1.7-4.2,2.5-7.2,2.5c-3.2,0-5.6-0.6-7.3-1.8c-1.6-1.2-2.6-2.9-2.7-5.1
		c-0.1-0.5-0.1-0.8-0.1-1.2c0-0.3,0-0.7,0-1c0-0.3,0-0.7,0-1.1c0-0.4,0-0.9,0-1.5h7c0,0.9,0,1.7,0,2.4c0,0.7,0.1,1,0.1,1.2
		c0.1,0.7,0.4,1.2,0.8,1.6c0.5,0.4,1.1,0.6,2,0.6c2,0,2.9-1,2.9-3.1c0-0.8-0.1-1.6-0.2-2.2c-0.1-0.7-0.3-1.3-0.7-1.9
		s-0.7-1.2-1.2-1.8c-0.5-0.6-1.1-1.2-1.8-1.8c-0.1-0.1-0.3-0.3-0.6-0.5c-0.3-0.3-0.6-0.6-0.9-0.8c-0.3-0.3-0.7-0.7-1-0.9
		c-0.4-0.3-0.7-0.6-0.9-0.8c-0.9-0.8-1.7-1.6-2.4-2.3c-0.7-0.7-1.2-1.6-1.8-2.4c-0.5-0.8-0.8-1.8-1-2.8
		C31.7,11.6,31.5,10.4,31.5,9.1z"/>
	<path d="M55.1,39.6V0.1h7.2v15.7L70,0.1H77l-8.4,16.9l8.4,22.7h-7.5l-5.7-16l-1.6,3v13H55.1z"/>
</g>
</svg>
