<svg version="1.1" id="svg-gronn-section" xmlns="http://www.w3.org/2000/svg" xmlns:xlink="http://www.w3.org/1999/xlink" x="0px" y="0px"
	 viewBox="0 0 110.9 38" xml:space="preserve" fill="#4ab848">
<g>
	<path d="M0.2,19.4c0-0.9,0-2,0-3.2c0-1.2,0.1-2.3,0.1-3.5c0.1-1.2,0.1-2.3,0.2-3.3s0.3-2,0.5-2.8c0.2-0.7,0.5-1.5,0.9-2.2
		c0.4-0.7,1-1.4,1.7-2c0.7-0.6,1.6-1.1,2.7-1.5s2.3-0.6,3.8-0.6s2.8,0.2,3.9,0.5s2,0.8,2.7,1.4c0.7,0.6,1.3,1.2,1.7,2
		c0.4,0.7,0.7,1.5,0.8,2.4c0.1,0.9,0.2,1.8,0.3,2.8c0.1,1.1,0.1,2.4,0.1,4.1h-6.5c0-0.1,0-0.2,0-0.6s0-0.7,0-1.2c0-0.5,0-1-0.1-1.5
		c0-0.5-0.1-1.1-0.1-1.5c-0.2-1.5-1-2.3-2.5-2.3c-0.6,0-1.2,0.2-1.7,0.6C8.2,7.4,7.9,8,7.8,8.8c-0.1,0.8-0.2,1.7-0.2,2.6
		c-0.1,0.9-0.1,1.9-0.1,2.8c0,0.9-0.1,1.9-0.1,2.8s0,1.7,0,2.5c0,0.7,0,1.5,0,2.4c0,0.9,0,1.9,0.1,2.8s0.1,1.9,0.2,2.8
		c0.1,0.9,0.2,1.8,0.2,2.5c0.3,1.6,1.2,2.4,2.5,2.4h0.1c1.9,0,2.9-1,3-2.9v-6.9H9.7v-5.9h10.2v12.4c0,1.1,0,2.1,0,3.2s0,2,0,2.8
		c0,0.8,0,1.5,0,2V38h-5l-0.3-1.7c-0.5,0.6-1.2,1.1-2.2,1.5c-1,0.4-2.2,0.6-3.6,0.6c-1.9,0-3.5-0.6-4.9-1.6
		c-1.4-1.1-2.2-2.6-2.7-4.7c-0.1-0.9-0.2-1.8-0.4-2.8c-0.2-1.1-0.3-2.1-0.4-3.3c-0.1-1.1-0.2-2.2-0.2-3.3
		C0.2,21.5,0.2,20.4,0.2,19.4z"/>
	<path d="M23.4,38V0.7h11.2c1.4,0,2.7,0.3,3.8,0.9c1.1,0.6,2,1.4,2.5,2.5c0.4,0.8,0.7,1.8,0.9,3c0.2,1.2,0.4,2.7,0.4,4.5
		c0,1.5-0.1,2.7-0.2,3.7c-0.2,1-0.4,1.9-0.6,2.5c-0.3,0.7-0.7,1.3-1.1,1.8c-0.4,0.5-0.9,0.8-1.3,1l4.5,17.5h-7.1l-3.8-15.5h-2.4
		v15.5L23.4,38L23.4,38z M30.2,16.8h1.5c0.4,0,0.8,0,1.1,0c0.4,0,0.6,0,0.6,0c0.9-0.1,1.4-0.5,1.5-1.2c0.1-0.4,0.2-0.9,0.3-1.5
		s0.1-1.3,0.1-1.9c0-0.3,0-0.6,0-1c0-0.4-0.1-0.7-0.1-1.1c0-0.3-0.1-0.6-0.1-0.9c0-0.2-0.1-0.4-0.1-0.6c-0.1-0.6-0.4-1-0.7-1.3
		c-0.3-0.3-0.7-0.5-1.3-0.5h-3.1L30.2,16.8L30.2,16.8z"/>
	<path d="M45.6,19.3c0-1.6,0-3,0-4.2s0.1-2.2,0.1-3.1c0.1-0.9,0.1-1.7,0.2-2.3c0.1-0.7,0.2-1.2,0.3-1.8c0.2-1.1,0.6-2,1-2.9
		s1.1-1.7,1.8-2.4c0.7-0.7,1.7-1.2,2.8-1.6c1.1-0.4,2.4-0.6,3.9-0.6c2,0,3.6,0.3,5,0.9L61,0.1h2.4l-0.8,2.5c1.2,1.1,2.1,2.7,2.6,4.9
		c0.1,0.6,0.2,1.2,0.3,1.9c0.1,0.7,0.1,1.5,0.2,2.4c0.1,0.9,0.1,2,0.1,3.2s0.1,2.6,0.1,4.2c0,1.5,0,2.8-0.1,4
		c-0.1,1.1-0.1,2.2-0.1,3c-0.1,0.9-0.1,1.8-0.2,2.5c-0.1,0.7-0.2,1.5-0.4,2.4c-0.4,2.3-1.4,4.1-2.8,5.4c-1.5,1.3-3.7,2-6.6,2
		c-1.9,0-3.4-0.2-4.7-0.8L50.1,40h-2.4c0.2-0.7,0.4-1.3,0.6-1.9c0.1-0.4,0.3-0.9,0.4-1.2c0.1-0.4,0.2-0.6,0.2-0.6
		c-1.3-1.2-2.2-2.8-2.6-4.9c-0.1-0.6-0.2-1.3-0.3-2.1c-0.1-0.9-0.2-1.8-0.2-2.9c-0.1-1.1-0.1-2.2-0.2-3.5
		C45.7,21.9,45.6,20.6,45.6,19.3z M52.6,19.4c0,2.5,0.1,4.6,0.1,6.4c1.1-3.2,2-6,2.8-8.5c0.4-1.1,0.7-2.2,1.1-3.2
		c0.4-1.1,0.6-1.9,0.9-2.7c0.3-0.8,0.5-1.4,0.6-1.9l0.2-0.7c-0.1-0.8-0.4-1.4-0.8-1.7c-0.4-0.4-1-0.5-1.8-0.5
		c-0.9,0-1.5,0.2-1.9,0.6c-0.4,0.4-0.6,1.1-0.8,1.9C52.8,10.5,52.6,14,52.6,19.4z M53.3,30.3c0.2,0.7,0.4,1.2,0.8,1.5
		c0.4,0.4,0.9,0.6,1.7,0.6c0.8,0,1.4-0.2,1.8-0.6s0.7-0.9,0.9-1.5c0.2-0.7,0.4-2.1,0.5-4c0.1-1.9,0.1-4.2,0.1-6.9
		c0-2.4-0.1-4.4-0.2-6L53.3,30.3z"/>
	<path d="M69.4,38V0.7h6.4l5.9,18.3V0.7H88V38h-6.4l-5.9-18.6V38H69.4z"/>
	<path d="M92.1,38V0.7h6.4l5.9,18.3V0.7h6.4V38h-6.4l-5.9-18.6V38H92.1z"/>
</g>
</svg>
