<svg version="1.1" id="svg-jobb-section" xmlns="http://www.w3.org/2000/svg" xmlns:xlink="http://www.w3.org/1999/xlink" x="0px" y="0px"
	 viewBox="0 0 86.9 40.1" xml:space="preserve" fill="#f4c04c">
<g>
	<path d="M0.1,39.6v-6.1c0.4,0.1,0.9,0.1,1.4,0.1c0.1,0,0.4,0,0.5,0c0.4,0,0.7,0,1.1,0c1-0.1,1.7-0.4,2.1-1c0.4-0.6,0.6-1.3,0.6-2.1
		V0.4h7.1v31.1c0,3-0.7,5.2-2.2,6.5C9.2,39.3,6.9,40,3.9,40c-0.5,0-0.9,0-1.3,0S2,40,1.7,39.9c-0.3,0-0.6-0.1-0.8-0.1
		C0.7,39.7,0.4,39.7,0.1,39.6z"/>
	<path d="M16.5,19.9c0-1.7,0-3.2,0-4.4c0-1.2,0.1-2.4,0.1-3.2c0.1-0.9,0.1-1.7,0.2-2.4C16.8,9.1,17,8.5,17.1,8
		c0.2-1.1,0.6-2.1,1.1-3.1c0.5-0.9,1.1-1.8,1.9-2.4c0.8-0.7,1.8-1.3,2.9-1.7c1.1-0.4,2.5-0.6,4.1-0.6c3,0,5.3,0.6,6.9,1.9
		s2.6,3.1,3.2,5.6c0.1,0.6,0.2,1.2,0.3,1.9c0.1,0.7,0.1,1.5,0.2,2.5c0.1,0.9,0.1,2.1,0.1,3.3c0,1.2,0.1,2.7,0.1,4.4
		c0,1.6,0,3-0.1,4.2c0,1.1-0.1,2.2-0.1,3.2c-0.1,0.9-0.1,1.9-0.2,2.7c-0.1,0.8-0.2,1.7-0.4,2.5c-0.4,2.4-1.4,4.3-3,5.7
		c-1.6,1.4-3.9,2.1-7,2.1c-1.5,0-2.8-0.1-3.9-0.5c-1.1-0.4-2-0.8-2.8-1.4c-0.8-0.6-1.4-1.4-1.9-2.3s-0.9-1.9-1.1-3
		c-0.1-0.6-0.2-1.4-0.4-2.2c-0.1-0.9-0.2-1.9-0.3-3c-0.1-1.1-0.1-2.3-0.1-3.6S16.5,21.4,16.5,19.9z M23.8,20.2
		c0,2.8,0.1,5.2,0.1,7.2c0.1,2,0.3,3.4,0.6,4.3c0.2,0.7,0.5,1.2,0.9,1.7c0.4,0.4,1,0.6,1.9,0.6c0.9,0,1.5-0.2,1.9-0.6
		c0.4-0.4,0.7-0.9,0.9-1.7c0.3-0.8,0.4-2.2,0.5-4.2s0.1-4.4,0.1-7.2s-0.1-5-0.1-6.7c-0.1-1.7-0.3-3.1-0.4-4.2
		c-0.1-0.9-0.4-1.7-0.9-2c-0.4-0.4-1.1-0.6-1.9-0.6c-0.9,0-1.6,0.2-1.9,0.6c-0.4,0.4-0.6,1.1-0.9,2C23.9,10.8,23.8,14.4,23.8,20.2z"
		/>
	<path d="M41.4,39.7V0.4h12.5c1.7,0,3.1,0.2,4.2,0.7c1.1,0.4,1.9,1.2,2.6,2.3c0.5,0.8,0.8,1.8,0.9,2.9c0.1,1.1,0.3,2.3,0.3,3.6
		s-0.1,2.6-0.2,3.8c-0.1,1.2-0.4,2.3-0.9,3.3c-0.4,0.7-0.9,1.3-1.4,1.7c-0.6,0.4-1.2,0.6-2.1,0.8c1.8,0.2,3.1,1.1,3.9,2.7
		c0.4,0.8,0.7,1.8,0.9,3.1c0.1,1.3,0.2,2.5,0.2,3.8c0,1.5-0.1,2.9-0.4,4.4c-0.2,1.4-0.7,2.6-1.4,3.5c-0.9,1.1-1.9,1.9-3,2.2
		c-1.1,0.3-2.7,0.5-4.5,0.5L41.4,39.7L41.4,39.7z M48.5,17.3h3.8c0.6,0,1.1-0.4,1.5-1.3c0.1-0.3,0.3-0.9,0.4-1.7
		c0.1-0.8,0.1-1.7,0.1-2.7c0-0.8-0.1-1.6-0.1-2.3C54,8.6,53.9,8,53.7,7.7c-0.1-0.4-0.4-0.8-0.7-1.1c-0.3-0.3-0.7-0.4-1.2-0.4h-3.3
		C48.5,6.2,48.5,17.3,48.5,17.3z M48.5,33.8H52c0.4,0,0.9-0.1,1.3-0.3c0.4-0.2,0.7-0.6,1-1.1c0.1-0.2,0.1-0.4,0.2-0.8
		c0.1-0.4,0.1-0.7,0.1-1.1s0.1-0.9,0.1-1.3s0-0.8,0-1.1c0-0.3,0-0.6,0-1.1s-0.1-0.8-0.1-1.2c-0.1-0.4-0.1-0.7-0.1-1.1
		c-0.1-0.3-0.1-0.6-0.2-0.7c-0.2-0.4-0.5-0.7-0.9-1c-0.4-0.3-0.8-0.4-1.2-0.4h-3.7L48.5,33.8L48.5,33.8z"/>
	<path d="M66,39.7V0.4h12.5c1.7,0,3.1,0.2,4.2,0.7c1.1,0.4,1.9,1.2,2.6,2.3c0.5,0.8,0.8,1.8,0.9,2.9c0.1,1.1,0.3,2.3,0.3,3.6
		s-0.1,2.6-0.2,3.8S85.8,16,85.3,17c-0.4,0.7-0.9,1.3-1.4,1.7c-0.6,0.4-1.2,0.6-2.1,0.8c1.8,0.2,3.1,1.1,3.9,2.7
		c0.4,0.8,0.7,1.8,0.9,3.1c0.1,1.3,0.2,2.5,0.2,3.8c0,1.5-0.1,2.9-0.4,4.4c-0.2,1.4-0.7,2.6-1.4,3.5c-0.9,1.1-1.9,1.9-3,2.2
		c-1.1,0.3-2.7,0.5-4.5,0.5L66,39.7L66,39.7z M73.1,17.3h3.8c0.6,0,1.1-0.4,1.5-1.3c0.1-0.3,0.3-0.9,0.4-1.7
		c0.1-0.8,0.1-1.7,0.1-2.7c0-0.8-0.1-1.6-0.1-2.3c-0.1-0.7-0.3-1.3-0.4-1.7c-0.1-0.4-0.4-0.8-0.7-1.1s-0.7-0.4-1.2-0.4h-3.3
		C73.1,6.2,73.1,17.3,73.1,17.3z M73.1,33.8h3.5c0.4,0,0.9-0.1,1.3-0.3c0.4-0.2,0.7-0.6,1-1.1c0.1-0.2,0.1-0.4,0.2-0.8
		c0.1-0.4,0.1-0.7,0.1-1.1c0.1-0.4,0.1-0.9,0.1-1.3s0-0.8,0-1.1c0-0.3,0-0.6,0-1.1s-0.1-0.8-0.1-1.2c-0.1-0.4-0.1-0.7-0.1-1.1
		C79,24.5,79,24.2,78.9,24c-0.2-0.4-0.5-0.7-0.9-1c-0.4-0.3-0.8-0.4-1.2-0.4h-3.7L73.1,33.8L73.1,33.8z"/>
</g>
</svg>
