<svg version="1.1" id="svg-maritim-section" xmlns="http://www.w3.org/2000/svg" xmlns:xlink="http://www.w3.org/1999/xlink" x="0px" y="0px"
	 viewBox="0 0 154.9 40.1" xml:space="preserve" fill="#1177b0">
<g>
	<path d="M0,39.9V0.1h9.7l4.5,25.1l4.9-25.1h9.4v39.9h-6.7l0.1-24.6l-4.4,24.6H11L6.6,15.4l0.1,24.5H0z"/>
	<path d="M31.3,39.9l6.6-39.9h10.3l6,39.9h-7.5l-1.2-9.6H40l-1.4,9.6H31.3z M40.7,24.4h4.1c-0.3-2.2-0.5-4.1-0.8-5.9
		c-0.1-0.8-0.2-1.5-0.3-2.2c-0.1-0.7-0.2-1.3-0.3-1.8s-0.1-1-0.2-1.4s-0.1-0.5-0.1-0.6c0-0.4,0-1-0.1-1.7c0-0.7-0.1-1.4-0.1-2
		c0-0.7-0.1-1.5-0.1-2.3c0,0.7-0.1,1.5-0.2,2.2c-0.1,0.6-0.1,1.3-0.2,2c0,0.7-0.1,1.3-0.2,1.9c0,0,0,0.3-0.1,0.6
		c-0.1,0.3-0.1,0.8-0.2,1.3c-0.1,0.5-0.2,1.1-0.3,1.9c-0.1,0.7-0.3,1.4-0.3,2.2C41.3,20.3,41,22.2,40.7,24.4z"/>
	<path d="M56.9,39.9V0.1h12c1.6,0,2.9,0.3,4.1,1c1.2,0.6,2.1,1.5,2.7,2.7c0.4,0.9,0.8,1.9,1,3.3c0.3,1.4,0.3,2.9,0.3,4.8
		c0,1.6-0.1,2.9-0.3,4c-0.2,1-0.4,2-0.6,2.7c-0.3,0.8-0.7,1.4-1.1,1.9c-0.4,0.5-1,0.9-1.4,1L78.5,40h-7.6l-4-16.6h-2.6V40L56.9,39.9
		C56.9,40,56.9,39.9,56.9,39.9z M64.2,17.2h1.6c0.4,0,0.9,0,1.2,0s0.6,0,0.6,0c1-0.1,1.5-0.5,1.6-1.2c0.2-0.3,0.3-1,0.3-1.6
		c0.1-0.7,0.1-1.4,0.1-2c0-0.3,0-0.7,0-1c0-0.3,0-0.8-0.1-1.1c0-0.3,0-0.7-0.1-1c0-0.3,0-0.4-0.1-0.6c-0.2-0.6-0.3-1-0.7-1.4
		c-0.3-0.3-0.8-0.5-1.4-0.5h-3.3L64.2,17.2L64.2,17.2z"/>
	<path d="M81.4,39.9V0.1h7.6v39.9H81.4z"/>
	<path d="M92,6.9V0.1h19.6v6.8h-6.1v33h-7.5v-33H92z"/>
	<path d="M114.5,39.9V0.1h7.6v39.9H114.5z"/>
	<path d="M126.3,39.9V0.1h9.7l4.5,25.1l4.9-25.1h9.4v39.9h-6.7l0.1-24.6l-4.4,24.6h-6.5l-4.4-24.5l0.1,24.5H126.3z"/>
</g>
</svg>
