<svg version="1.1" id="svg-meninger-section" xmlns="http://www.w3.org/2000/svg" xmlns:xlink="http://www.w3.org/1999/xlink" x="0px" y="0px"
	 viewBox="0 0 179.2 40.1" xml:space="preserve" fill="#a23e49">
<g>
	<path d="M0.3,39.6V0.3h9.6l4.5,24.8l4.7-24.8h9.3v39.3h-6.6l0.1-24.2l-4.4,24.2h-6.4L6.8,15.4v24.2H0.3z"/>
	<path d="M32.6,39.6V0.3h17.3v6.8H39.7v9.6h9.5v6.4h-9.5v10H50v6.6L32.6,39.6L32.6,39.6z"/>
	<path d="M53.4,39.6V0.3h6.8l6.2,19.2V0.3h6.7v39.3h-6.8L60.1,20v19.6H53.4z"/>
	<path d="M77.4,39.6V0.3h7.5v39.3H77.4z"/>
	<path d="M89.1,39.6V0.3h6.8l6.2,19.2V0.3h6.7v39.3H102L95.8,20v19.6H89.1z"/>
	<path d="M112.4,20c0-1,0-2.1,0-3.3s0.1-2.4,0.1-3.7c0.1-1.2,0.2-2.4,0.3-3.5c0.1-1.1,0.3-2.1,0.5-2.9s0.5-1.6,0.9-2.4
		s1-1.5,1.8-2.1c0.8-0.6,1.7-1.1,2.8-1.5c1.1-0.4,2.4-0.6,4-0.6s2.9,0.2,4.1,0.5c1.2,0.3,2.1,0.8,2.9,1.4c0.8,0.6,1.3,1.3,1.8,2.1
		c0.4,0.8,0.7,1.6,0.9,2.5s0.3,1.9,0.3,2.9c0.1,1.1,0.1,2.5,0.1,4.3H126c0-0.1,0-0.3,0-0.6s0-0.8,0-1.3s0-1,0-1.6s-0.1-1.1-0.1-1.6
		c-0.2-1.6-1.1-2.4-2.7-2.4c-0.7,0-1.3,0.2-1.7,0.6c-0.5,0.4-0.8,1-0.9,1.8c-0.1,0.8-0.2,1.8-0.3,2.7c-0.1,1-0.1,2-0.2,3
		c0,1-0.1,2-0.1,2.9c0,1,0,1.8,0,2.6c0,0.7,0,1.6,0,2.6s0,2,0.1,3c0,1,0.1,2,0.2,3c0.1,1,0.2,1.9,0.3,2.7c0.3,1.7,1.2,2.5,2.7,2.5
		l0,0c2,0,3-1,3.2-3v-7.2h-4.1v-6.2h10.8v13c0,1.1,0,2.2,0,3.3s0,2.1,0,2.9s0,1.6,0,2.1v0.8H128l-0.3-1.8c-0.5,0.7-1.3,1.2-2.3,1.6
		c-1,0.4-2.3,0.6-3.8,0.6c-2,0-3.7-0.6-5.1-1.7c-1.4-1.1-2.4-2.8-2.9-4.9c-0.1-0.9-0.3-1.9-0.4-3c-0.2-1.1-0.3-2.2-0.4-3.4
		s-0.2-2.4-0.2-3.5C112.4,22.2,112.4,21.1,112.4,20z"/>
	<path d="M136.9,39.6V0.3h17.3v6.8H144v9.6h9.5v6.4H144v10h10.3v6.6L136.9,39.6L136.9,39.6z"/>
	<path d="M157.6,39.6V0.3h11.8c1.5,0,2.8,0.3,4,0.9s2.1,1.5,2.6,2.7c0.4,0.8,0.8,1.9,1,3.2c0.2,1.3,0.4,2.9,0.4,4.7
		c0,1.6-0.1,2.9-0.3,3.9c-0.2,1.1-0.4,1.9-0.6,2.7c-0.3,0.7-0.7,1.4-1.1,1.9c-0.5,0.5-0.9,0.9-1.4,1l4.8,18.3h-7.5l-3.9-16.3h-2.6
		v16.3H157.6z M164.8,17.3h1.6c0.4,0,0.8,0,1.2,0s0.6,0,0.6,0c0.9-0.1,1.5-0.5,1.7-1.2c0.2-0.4,0.3-0.9,0.3-1.6
		c0.1-0.7,0.1-1.4,0.1-1.9c0-0.3,0-0.7,0-1c0-0.4,0-0.7,0-1.1c0-0.3,0-0.6,0-0.9s0-0.5-0.1-0.6c-0.1-0.6-0.4-1-0.7-1.4
		c-0.3-0.3-0.8-0.5-1.4-0.5h-3.3V17.3z"/>
</g>
</svg>
