<svg version="1.1" id="svg-menu-button" xmlns="http://www.w3.org/2000/svg" xmlns:xlink="http://www.w3.org/1999/xlink" x="0px" y="0px"
	 viewBox="0 0 22 22" xml:space="preserve">
<path d="M17.3,7.4H5.1c-0.6,0-1.1-0.5-1.1-1.1v0c0-0.6,0.5-1.1,1.1-1.1h12.3c0.6,0,1.1,0.5,1.1,1.1v0C18.4,6.9,17.9,7.4,17.3,7.4z"
	/>
<path d="M17.4,12.5h-7.3C9.5,12.5,9,12,9,11.4v0c0-0.6,0.5-1.1,1.1-1.1h7.3c0.6,0,1.1,0.5,1.1,1.1v0C18.5,12,18,12.5,17.4,12.5z"/>
<path d="M17.4,17.4H5.1c-0.6,0-1.1-0.5-1.1-1.1v0c0-0.6,0.5-1.1,1.1-1.1h12.3c0.6,0,1.1,0.5,1.1,1.1v0C18.5,16.9,18,17.4,17.4,17.4z
	"/>
</svg>
