<svg version="1.1" id="svg-offshore-section" xmlns="http://www.w3.org/2000/svg" xmlns:xlink="http://www.w3.org/1999/xlink" x="0px" y="0px"
	 viewBox="0 0 177.8 40.1" xml:space="preserve" fill="#f79621">
<g>
	<path d="M0.1,19.9c0-1.7,0-3.2,0-4.4c0-1.3,0-2.3,0.1-3.3c0-0.9,0.1-1.7,0.2-2.4c0.1-0.7,0.2-1.3,0.3-1.9c0.2-1.1,0.6-2.1,1.1-3.1
		C2.3,4,2.9,3.1,3.7,2.4c0.8-0.7,1.8-1.3,2.9-1.7c1.1-0.4,2.5-0.6,4.1-0.6c3,0,5.3,0.6,6.9,1.9s2.6,3.1,3.2,5.6
		c0.1,0.6,0.2,1.2,0.3,2c0.1,0.7,0.1,1.5,0.2,2.5c0.1,1,0.1,2.1,0.1,3.3c0,1.3,0,2.7,0,4.4c0,1.6,0,3,0,4.2c0,1.2-0.1,2.3-0.1,3.2
		c-0.1,1-0.1,1.9-0.2,2.7c-0.1,0.8-0.2,1.7-0.4,2.5c-0.4,2.4-1.4,4.4-3,5.7c-1.6,1.4-3.9,2.1-7,2.1c-1.5,0-2.8-0.2-3.9-0.5
		c-1.1-0.3-2-0.8-2.8-1.4s-1.4-1.4-1.9-2.3s-0.9-1.9-1.1-3c-0.1-0.6-0.2-1.3-0.3-2.2c-0.1-0.9-0.2-1.9-0.3-3S0.3,25.3,0.2,24
		C0.1,22.6,0.1,21.3,0.1,19.9z M7.4,20.1c0,2.8,0,5.2,0.1,7.2s0.3,3.4,0.6,4.3c0.2,0.7,0.5,1.2,0.9,1.6c0.4,0.4,1,0.6,1.8,0.6
		c0.9,0,1.5-0.2,1.9-0.6c0.4-0.4,0.7-1,0.9-1.6c0.3-0.8,0.4-2.2,0.5-4.2s0.1-4.5,0.1-7.3s-0.1-5-0.2-6.7s-0.3-3.1-0.4-4.3
		c-0.2-0.9-0.5-1.6-0.9-2c-0.4-0.4-1.1-0.6-1.9-0.6c-0.9,0-1.6,0.2-2,0.7c-0.4,0.4-0.7,1.1-0.9,2C7.6,10.7,7.4,14.4,7.4,20.1z"/>
	<path d="M25,39.6V0.4h17.3v6.7H32v9.4h9.4v6.6H32v16.3H25V39.6z"/>
	<path d="M45.2,39.6V0.4h17.3v6.7H52.4v9.4h9.4v6.6h-9.4v16.3h-7.2V39.6z"/>
	<path d="M64.7,9.4c0-2.9,0.9-5.2,2.7-6.9s4.2-2.5,7.4-2.5c1.5,0,2.9,0.2,4,0.6c1.1,0.4,2,1,2.8,1.7C82.2,3.1,82.8,4,83.2,5
		S83.9,7,84,8c0,0.2,0.1,0.5,0.1,0.8c0,0.3,0.1,0.7,0.1,1.1c0,0.4,0.1,0.8,0.1,1.1c0,0.4,0,0.7,0,1h-6.8c0-0.5,0-1,0-1.5
		s-0.1-1.1-0.1-1.7C77.4,8,77.2,7.4,76.8,7c-0.4-0.5-1.1-0.7-2-0.7S73.1,6.5,72.7,7C72.2,7.4,72,8.1,72,9.2c0,1.4,0.4,2.6,1.1,3.6
		s1.7,2,2.8,3.1c0.3,0.2,0.5,0.5,0.9,0.8c0.3,0.3,0.7,0.6,1,0.9c0.3,0.3,0.7,0.6,0.9,0.9c0.3,0.3,0.5,0.5,0.7,0.7
		c0.9,0.8,1.6,1.6,2.3,2.5c0.7,0.8,1.3,1.7,1.7,2.5c0.5,0.9,0.8,1.8,1,2.9c0.2,1,0.4,2.2,0.4,3.5c0,3-0.9,5.4-2.7,7.1
		C80.2,39.3,77.8,40,75,40c-3.2,0-5.6-0.6-7.2-1.8c-1.7-1.2-2.6-2.9-2.8-5.1c0-0.5-0.1-0.9-0.1-1.2s0-0.6,0-1c0-0.3,0-0.7,0-1.1
		c0-0.4,0-0.9,0-1.5h7c0,0.9,0,1.7,0,2.3s0,1,0.1,1.2c0.1,0.7,0.4,1.2,0.8,1.6c0.5,0.4,1.1,0.6,2,0.6c2,0,2.9-1,2.9-3.1
		c0-0.8-0.1-1.6-0.2-2.2c-0.1-0.7-0.3-1.3-0.7-1.9c-0.3-0.6-0.7-1.2-1.2-1.7c-0.5-0.6-1.1-1.2-1.8-1.8c-0.1-0.1-0.3-0.3-0.6-0.5
		c-0.3-0.3-0.6-0.6-0.9-0.9c-0.3-0.3-0.7-0.6-1.1-0.9c-0.4-0.3-0.7-0.6-0.9-0.8c-0.9-0.8-1.7-1.6-2.4-2.3c-0.7-0.7-1.3-1.5-1.7-2.4
		c-0.5-0.8-0.8-1.8-1.1-2.8C64.8,11.8,64.7,10.7,64.7,9.4z"/>
	<path d="M87.9,39.6V0.4H95v16.3h5.7V0.4h7.2v39.1h-7.2V23.2H95v16.4H87.9z"/>
	<path d="M111.5,19.9c0-1.7,0-3.2,0-4.4c0-1.3,0-2.3,0.1-3.3c0-0.9,0.1-1.7,0.2-2.4c0.1-0.7,0.2-1.3,0.3-1.9
		c0.2-1.1,0.6-2.1,1.1-3.1c0.5-0.9,1.1-1.8,1.9-2.5s1.8-1.3,2.9-1.7c1.1-0.4,2.5-0.6,4.1-0.6c3,0,5.3,0.6,6.9,1.9
		c1.6,1.3,2.6,3.1,3.2,5.6c0.1,0.6,0.2,1.2,0.3,2c0.1,0.7,0.2,1.5,0.2,2.5s0.1,2.1,0.1,3.3c0,1.3,0,2.7,0,4.4c0,1.6,0,3,0,4.2
		c0,1.2-0.1,2.3-0.1,3.2c-0.1,1-0.1,1.9-0.2,2.7c-0.1,0.8-0.2,1.7-0.4,2.5c-0.4,2.4-1.4,4.4-3,5.7c-1.6,1.4-3.9,2.1-7,2.1
		c-1.5,0-2.8-0.2-3.9-0.5c-1.1-0.3-2-0.8-2.8-1.4s-1.4-1.4-1.9-2.3c-0.5-0.9-0.9-1.9-1.1-3c-0.1-0.6-0.2-1.3-0.4-2.2
		c-0.1-0.9-0.2-1.9-0.3-3s-0.1-2.3-0.2-3.6C111.5,22.6,111.5,21.3,111.5,19.9z M118.8,20.1c0,2.8,0,5.2,0.1,7.2s0.3,3.4,0.6,4.3
		c0.2,0.7,0.5,1.2,0.9,1.6c0.4,0.4,1,0.6,1.8,0.6c0.9,0,1.5-0.2,1.9-0.6c0.4-0.4,0.7-1,0.9-1.6c0.3-0.8,0.4-2.2,0.5-4.2
		c0.1-2,0.1-4.5,0.1-7.3s-0.1-5-0.2-6.7c-0.1-1.7-0.3-3.1-0.4-4.3c-0.2-0.9-0.5-1.6-0.9-2s-1.1-0.6-1.9-0.6c-0.9,0-1.6,0.2-2,0.7
		c-0.4,0.4-0.7,1.1-0.9,2C119,10.7,118.8,14.4,118.8,20.1z"/>
	<path d="M136.3,39.6V0.4H148c1.5,0,2.9,0.3,4,0.9c1.2,0.6,2.1,1.5,2.6,2.7c0.4,0.8,0.8,1.9,1,3.2c0.2,1.3,0.4,2.9,0.4,4.7
		c0,1.6-0.1,2.9-0.3,3.9c-0.2,1.1-0.4,1.9-0.6,2.7c-0.3,0.7-0.7,1.4-1.1,1.9c-0.5,0.5-0.9,0.9-1.4,1l4.8,18.3h-7.5L146,23.3h-2.6
		v16.3C143.4,39.6,136.3,39.6,136.3,39.6z M143.4,17.3h1.6c0.4,0,0.8,0,1.2,0c0.4,0,0.6,0,0.6,0c0.9-0.1,1.5-0.5,1.7-1.2
		c0.2-0.4,0.3-0.9,0.3-1.6c0.1-0.7,0.1-1.4,0.1-1.9c0-0.3,0-0.7,0-1c0-0.4,0-0.7,0-1.1c0-0.3,0-0.6,0-0.9c0-0.3,0-0.5-0.1-0.6
		c-0.1-0.6-0.4-1-0.7-1.4c-0.3-0.3-0.8-0.5-1.4-0.5h-3.3L143.4,17.3L143.4,17.3z"/>
	<path d="M160.3,39.6V0.4h17.3v6.7h-10.1v9.5h9.4V23h-9.4v9.9h10.2v6.6L160.3,39.6L160.3,39.6z"/>
</g>
</svg>
