<svg version="1.1" id="svg-podkast-section" xmlns="http://www.w3.org/2000/svg" xmlns:xlink="http://www.w3.org/1999/xlink" x="0px" y="0px"
	 viewBox="0 0 159.8 40.1" xml:space="preserve" fill="#e51f28">
<g>
	<path d="M0.1,39.6V0.3h11.7c1.6,0,2.8,0.2,3.9,0.6s1.9,1.2,2.7,2.1c1.3,1.7,1.9,4.8,1.9,9.5c0,2.4-0.2,4.3-0.5,5.8
		c-0.3,1.5-0.8,2.7-1.6,3.6c-0.7,0.9-1.6,1.6-2.7,1.9c-1.1,0.5-2.3,0.6-3.8,0.7c-0.3,0-0.6,0.1-1.1,0.1s-0.9,0-1.5,0H7.5v14.9
		L0.1,39.6L0.1,39.6z M7.5,18.5h2.8c1.6,0,2.4-0.6,2.7-1.8c0.1-0.4,0.1-0.6,0.2-0.9c0-0.3,0.1-0.6,0.1-0.8s0-0.6,0.1-0.9
		c0-0.4,0-0.8,0-1.4c0-1.1-0.1-1.9-0.2-2.8c-0.1-0.8-0.2-1.3-0.4-1.7c-0.2-0.5-0.5-0.8-0.8-1.1c-0.4-0.3-0.9-0.5-1.5-0.5H7.5V18.5z"
		/>
	<path d="M23.2,19.8c0-1.7,0-3.2,0-4.4c0-1.3,0.1-2.3,0.1-3.2c0.1-0.9,0.1-1.7,0.2-2.4c0.1-0.6,0.2-1.3,0.3-1.8
		c0.2-1.1,0.6-2.1,1.1-3c0.5-0.9,1.1-1.7,1.9-2.5c0.8-0.7,1.7-1.3,2.9-1.7c1.1-0.5,2.5-0.6,4.1-0.6c3,0,5.3,0.6,6.9,1.8
		c1.6,1.3,2.6,3.1,3.2,5.6c0.1,0.6,0.3,1.3,0.3,1.9c0.1,0.7,0.2,1.6,0.2,2.5c0.1,0.9,0.1,2.1,0.1,3.3c0,1.3,0.1,2.8,0.1,4.4
		c0,1.6,0,3-0.1,4.1c-0.1,1.1-0.1,2.2-0.1,3.2c-0.1,1-0.1,1.8-0.3,2.7c-0.1,0.8-0.2,1.7-0.4,2.6c-0.5,2.4-1.5,4.3-3,5.7
		c-1.6,1.4-3.9,2.1-7,2.1c-1.5,0-2.8-0.2-3.9-0.6c-1.1-0.4-2-0.8-2.8-1.5c-0.8-0.6-1.5-1.4-1.9-2.3c-0.5-0.9-0.8-1.9-1.1-3
		c-0.1-0.6-0.3-1.4-0.4-2.2c-0.1-0.9-0.2-1.9-0.3-3s-0.1-2.3-0.2-3.6C23.2,22.6,23.2,21.2,23.2,19.8z M30.4,20
		c0,2.8,0.1,5.1,0.2,7.2c0.1,2,0.3,3.4,0.6,4.3c0.2,0.6,0.5,1.2,0.8,1.7c0.4,0.4,1,0.6,1.8,0.6c0.8,0,1.5-0.2,1.8-0.6
		c0.4-0.5,0.7-0.9,0.9-1.7c0.3-0.8,0.5-2.2,0.6-4.2c0.1-2,0.1-4.5,0.1-7.3s-0.1-5-0.2-6.7c-0.1-1.7-0.3-3-0.5-4.2
		c-0.2-0.9-0.5-1.7-0.9-2c-0.5-0.4-1.1-0.6-1.9-0.6c-0.9,0-1.6,0.2-1.9,0.6c-0.4,0.5-0.6,1.1-0.9,2C30.6,10.6,30.4,14.3,30.4,20z"/>
	<path d="M48.1,39.6V0.3h10.3c2.1,0,3.9,0.3,5.1,0.8c1.3,0.6,2.3,1.5,3.1,2.8c0.4,0.6,0.7,1.4,0.9,2.5c0.3,1.1,0.4,2.3,0.6,3.7
		c0.1,1.4,0.2,2.8,0.3,4.4c0.1,1.6,0.1,3.1,0.1,4.7c0,4.1-0.1,7.5-0.4,10.5s-0.7,5-1.5,6.2c-0.6,1.1-1.6,2-2.6,2.7
		c-1.1,0.6-2.7,1-4.7,1L48.1,39.6L48.1,39.6z M55.1,34h3.1c0,0,0,0,0.1,0c1.3,0,2.1-0.6,2.4-2c0.1-0.3,0.1-0.7,0.2-1.4
		c0-0.6,0.1-1.4,0.1-2.2c0-0.8,0.1-1.7,0.1-2.7s0.1-1.8,0.1-2.7c0-0.8,0-1.7,0-2.3s0-1.2,0-1.6c0-0.5,0-1.3,0-2.3
		c0-1-0.1-2.1-0.1-3.2c-0.1-1.1-0.1-2.1-0.2-3c-0.1-0.9-0.1-1.6-0.2-1.9c-0.4-1.6-1.3-2.3-2.7-2.3h-2.8L55.1,34L55.1,34z"/>
	<path d="M71.7,39.6V0.3h7.2v15.6l7.7-15.6h7l-8.3,16.8l8.4,22.5h-7.4l-5.7-15.9l-1.7,2.9v12.9L71.7,39.6L71.7,39.6z"/>
	<path d="M94.4,39.6L101,0.4h10.1l5.9,39.2h-7.3l-1.2-9.5H103l-1.4,9.5H94.4z M103.6,24.2h4c-0.3-2.1-0.5-4-0.7-5.8
		c-0.1-0.7-0.2-1.5-0.3-2.1c-0.1-0.6-0.2-1.3-0.2-1.8c-0.1-0.6-0.1-1-0.2-1.3c0-0.4-0.1-0.6-0.1-0.6c-0.1-0.6-0.1-1.1-0.2-1.8
		c0-0.6-0.1-1.3-0.1-1.9c0-0.7-0.1-1.5-0.1-2.2c0,0.7-0.1,1.5-0.2,2.2c-0.1,0.6-0.1,1.3-0.2,1.9c0,0.6-0.1,1.3-0.2,1.8
		c0,0,0,0.2-0.1,0.6c-0.1,0.4-0.1,0.8-0.2,1.3c-0.1,0.6-0.2,1.2-0.3,1.8c-0.1,0.7-0.2,1.4-0.3,2.1C104.3,20.2,104,22.1,103.6,24.2z"
		/>
	<path d="M118.8,9.3c0-2.8,0.9-5.1,2.7-6.9s4.2-2.6,7.3-2.6c1.6,0,2.8,0.2,3.9,0.6s2,1,2.8,1.7s1.3,1.6,1.7,2.6s0.6,2,0.8,3.1
		c0,0.2,0.1,0.5,0.1,0.8c0,0.4,0.1,0.7,0.1,1.1c0,0.4,0.1,0.7,0.1,1.1c0,0.4,0,0.7,0,1h-6.7c0-0.5,0-1-0.1-1.5
		c0-0.5-0.1-1.1-0.2-1.7c-0.1-0.8-0.4-1.4-0.7-1.8c-0.4-0.5-1.1-0.7-2-0.7s-1.7,0.3-2.1,0.7s-0.7,1.2-0.7,2.3c0,1.4,0.4,2.6,1.1,3.6
		c0.7,1,1.7,2,2.8,3c0.3,0.2,0.6,0.5,0.9,0.8c0.4,0.3,0.6,0.6,1,0.9c0.4,0.3,0.6,0.6,0.9,0.9c0.3,0.3,0.6,0.5,0.7,0.6
		c0.8,0.8,1.7,1.7,2.3,2.5c0.6,0.8,1.3,1.7,1.7,2.5c0.5,0.8,0.8,1.8,1,2.8c0.3,1,0.4,2.2,0.4,3.5c0,3-0.9,5.4-2.7,7.1
		c-1.7,1.7-4.1,2.5-7.1,2.5c-3.1,0-5.6-0.6-7.3-1.8c-1.7-1.2-2.6-2.8-2.8-5.1c0-0.5-0.1-0.8-0.1-1.2c0-0.4,0-0.6,0-1
		c0-0.3,0-0.6,0-1.1c0-0.4,0-0.9,0-1.5h7c0,0.9,0,1.7,0,2.3c0,0.6,0,1,0.1,1.2c0.1,0.6,0.4,1.2,0.8,1.6s1.1,0.6,2,0.6
		c1.9,0,2.9-1,2.9-3c0-0.8-0.1-1.6-0.2-2.2c-0.1-0.6-0.4-1.3-0.6-1.8s-0.7-1.2-1.2-1.7c-0.5-0.6-1.1-1.2-1.8-1.8
		c-0.1-0.1-0.4-0.3-0.6-0.6c-0.3-0.3-0.6-0.6-0.9-0.8c-0.4-0.3-0.7-0.6-1.1-0.9c-0.4-0.3-0.6-0.6-0.9-0.8c-0.9-0.8-1.7-1.6-2.4-2.3
		c-0.6-0.7-1.3-1.6-1.7-2.4c-0.5-0.8-0.8-1.7-1-2.8C118.9,11.7,118.8,10.6,118.8,9.3z"/>
	<path d="M140.5,7.1V0.4h19.2v6.7h-6v32.5h-7.3V7.1H140.5z"/>
</g>
</svg>
