<svg version="1.1" id="svg-sysla-section" xmlns="http://www.w3.org/2000/svg" xmlns:xlink="http://www.w3.org/1999/xlink" x="0px" y="0px"
	 viewBox="0 0 125 40.1" xml:space="preserve" fill="#272727">
	<g>
		<path d="M0.1,9.5c0-2.9,1-5.1,3.1-6.8s4.9-2.5,8.6-2.5c1.8,0,3.3,0.2,4.7,0.6s2.4,1,3.3,1.7c0.8,0.7,1.5,1.6,2,2.6
			c0.5,1,0.8,2,1,3.1c0.1,0.2,0.1,0.5,0.1,0.8c0.1,0.3,0.1,0.7,0.1,1.1c0.1,0.3,0.1,0.8,0.1,1.1s0,0.7,0,1h-7.9c0-0.5,0-1-0.1-1.5
			c-0.1-0.5-0.1-1-0.1-1.7c-0.1-0.8-0.4-1.4-0.8-1.9c-0.5-0.5-1.3-0.7-2.4-0.7S9.9,6.6,9.3,7.1C8.8,7.6,8.5,8.3,8.5,9.3
			c0,1.4,0.4,2.6,1.3,3.6c0.8,1,1.9,2,3.3,3.1c0.3,0.2,0.6,0.5,1,0.8c0.4,0.3,0.8,0.6,1.2,0.9c0.4,0.3,0.8,0.6,1.1,0.9
			c0.3,0.3,0.6,0.5,0.8,0.6c1,0.8,1.9,1.6,2.7,2.4c0.8,0.8,1.5,1.7,2,2.5c0.6,0.8,1,1.8,1.3,2.9c0.3,1,0.4,2.2,0.4,3.5
			c0,3-1,5.4-3.1,7c-2.1,1.7-4.9,2.5-8.3,2.5c-3.7,0-6.5-0.6-8.5-1.8s-3-2.9-3.2-5c-0.1-0.5-0.2-0.8-0.2-1.2c0-0.3,0-0.6,0-1
			c0-0.3,0-0.7,0-1c0-0.4,0-0.9,0-1.5h8.1c0,0.9,0,1.7,0,2.3c0,0.6,0.1,1,0.1,1.2c0.1,0.7,0.4,1.2,1,1.6s1.3,0.6,2.4,0.6
			c2.3,0,3.5-1,3.5-3.1c0-0.8-0.1-1.5-0.2-2.2c-0.1-0.7-0.4-1.3-0.8-1.9c-0.3-0.6-0.8-1.2-1.4-1.7c-0.6-0.6-1.3-1.2-2.2-1.8
			c-0.1-0.1-0.4-0.3-0.7-0.6c-0.3-0.3-0.7-0.6-1.1-0.8c-0.4-0.3-0.8-0.6-1.3-0.9c-0.5-0.3-0.8-0.6-1.2-0.8c-1-0.8-1.9-1.5-2.8-2.3
			s-1.5-1.5-2-2.4c-0.6-0.8-1-1.7-1.3-2.8C0.3,12,0.1,10.8,0.1,9.5z"/>
		<path d="M22.9,0.5h8.6c0.8,2.6,1.6,5.1,2.3,7.4c0.3,1,0.6,1.9,0.9,2.9c0.3,1,0.6,1.9,0.8,2.6c0.3,0.8,0.5,1.5,0.6,2.1
			c0.1,0.6,0.3,1,0.3,1.3c0.1-0.3,0.3-0.7,0.5-1.3c0.2-0.6,0.5-1.3,0.8-2.1c0.3-0.8,0.6-1.7,0.9-2.6c0.3-1,0.6-1.9,1-2.9
			c0.8-2.2,1.7-4.7,2.6-7.4h8.3L40.8,25v14.6h-8.3V25.1L22.9,0.5z"/>
		<path d="M50.5,9.5c0-2.9,1-5.1,3.1-6.8c2.1-1.7,4.9-2.5,8.6-2.5c1.8,0,3.3,0.2,4.7,0.6c1.3,0.4,2.4,1,3.3,1.7
			C71,3.1,71.7,4,72.2,5c0.5,1,0.8,2,1,3.1c0.1,0.2,0.1,0.5,0.1,0.8c0.1,0.3,0.1,0.7,0.1,1.1c0.1,0.3,0.1,0.8,0.1,1.1s0,0.7,0,1h-7.9
			c0-0.5,0-1-0.1-1.5c-0.1-0.5-0.1-1-0.1-1.7c-0.1-0.8-0.4-1.4-0.8-1.9c-0.5-0.5-1.3-0.7-2.4-0.7c-1.1,0-1.9,0.2-2.5,0.7
			c-0.6,0.5-0.8,1.2-0.8,2.2c0,1.4,0.4,2.6,1.3,3.6c0.8,1,1.9,2,3.3,3.1c0.3,0.2,0.6,0.5,1,0.8c0.4,0.3,0.8,0.6,1.2,0.9
			c0.4,0.3,0.8,0.6,1.1,0.9c0.3,0.3,0.6,0.5,0.8,0.6c1,0.8,1.9,1.6,2.7,2.4c0.8,0.8,1.5,1.7,2,2.5c0.6,0.8,1,1.8,1.3,2.9
			s0.4,2.2,0.4,3.5c0,3-1,5.4-3.1,7c-2.1,1.7-4.9,2.5-8.3,2.5c-3.7,0-6.5-0.6-8.5-1.8c-1.9-1.2-3-2.9-3.2-5c-0.1-0.5-0.1-0.8-0.1-1.2
			c0-0.3,0-0.6,0-1c0-0.3,0-0.7,0-1c0-0.4,0-0.9,0-1.5h7.9c0,0.9,0,1.7,0,2.3c0,0.6,0.1,1,0.1,1.2c0.1,0.7,0.4,1.2,1,1.6
			c0.6,0.4,1.3,0.6,2.4,0.6c2.3,0,3.5-1,3.5-3.1c0-0.8-0.1-1.5-0.2-2.2c-0.1-0.6-0.4-1.3-0.8-1.9c-0.3-0.6-0.8-1.2-1.4-1.7
			c-0.6-0.6-1.3-1.2-2.2-1.8c-0.1-0.1-0.4-0.3-0.7-0.6c-0.3-0.3-0.7-0.6-1.1-0.8c-0.4-0.3-0.8-0.6-1.3-0.9c-0.4-0.3-0.8-0.6-1.1-0.8
			c-1-0.8-1.9-1.5-2.8-2.3c-0.8-0.8-1.5-1.5-2-2.4s-1-1.7-1.3-2.8C50.6,12,50.5,10.8,50.5,9.5z"/>
		<path d="M76.7,39.6V0.5h8.3V33h12.2v6.6H76.7z"/>
		<path d="M98.4,39.6L106,0.5h11.8l6.9,39.1h-8.6l-1.4-9.4h-6.4l-1.7,9.4H98.4z M109.2,24.3h4.7c-0.3-2.1-0.6-4-0.8-5.7
			c-0.1-0.7-0.2-1.5-0.3-2.1c-0.1-0.7-0.2-1.3-0.3-1.8c-0.1-0.6-0.1-1-0.2-1.3c-0.1-0.3-0.1-0.6-0.1-0.6c-0.1-0.6-0.1-1.1-0.2-1.8
			c-0.1-0.7-0.1-1.3-0.1-1.9c-0.1-0.7-0.1-1.5-0.1-2.2c-0.1,0.7-0.1,1.5-0.1,2.2c-0.1,0.6-0.1,1.3-0.1,1.9c-0.1,0.7-0.1,1.3-0.1,1.8
			c0,0,0,0.2-0.1,0.6c-0.1,0.3-0.1,0.8-0.2,1.3c-0.1,0.6-0.2,1.1-0.3,1.8c-0.1,0.7-0.3,1.4-0.3,2.1C109.9,20.3,109.6,22.2,109.2,24.3
			z"/>
	</g>
</svg>
