<svg version="1.1" id="svg-user-account" xmlns="http://www.w3.org/2000/svg" xmlns:xlink="http://www.w3.org/1999/xlink" x="0px" y="0px"
	 viewBox="0 0 22 22" xml:space="preserve" fill="#c9c9c9">
<g>
	<path d="M5.1,17.8h11.7c0.7,0,1.2-0.7,1-1.4l-0.5-1.4c-0.5-1-1.4-1.7-2.5-2l-1.6-0.5c-0.5-0.1-0.7-0.6-0.6-1.1
		c0-0.1,0.1-0.2,0.1-0.3l1-1.6c0.4-0.7,0.6-1.5,0.5-2.3l-0.1-0.6c-0.1-0.8-0.6-1.6-1.3-2.1c-1.2-0.8-2.7-0.8-3.8,0.1l0,0
		C8.5,5.1,8,5.7,7.9,6.5L7.7,7.2C7.5,8,7.7,8.9,8.1,9.6l1,1.6c0.1,0.1,0.1,0.2,0.1,0.3c0.2,0.5-0.1,1-0.6,1.1L7,13.1
		c-1.1,0.3-1.9,1-2.5,2l-0.5,1.4C3.9,17.1,4.4,17.8,5.1,17.8z"/>
</g>
</svg>
