<?xml version="1.0" standalone="no"?>
<!DOCTYPE svg PUBLIC "-//W3C//DTD SVG 1.1//EN" "http://www.w3.org/Graphics/SVG/1.1/DTD/svg11.dtd" >
<svg xmlns="http://www.w3.org/2000/svg">
<metadata></metadata>
<defs>
<font id="titlinggothicfb_condstandard" horiz-adv-x="1144" >
<font-face units-per-em="2048" ascent="1638" descent="-410" />
<missing-glyph horiz-adv-x="403" />
<glyph unicode="&#xfb01;" horiz-adv-x="1001" d="M18 926v200h136v248q0 125 68.5 198t213.5 73q77 0 162 -11v-194q-40 8 -100 8q-61 0 -90 -30.5t-29 -84.5v-209h528v-1024q0 -87 13 -100h-228q-14 14 -14 92v838h-299v-930h-225v926h-136z" />
<glyph unicode="&#xfb02;" horiz-adv-x="993" d="M18 926v200h132v248q0 125 65 198t205 73q92 0 166 -11v-194q-36 8 -105 8q-106 0 -106 -98v-226h203v-198h-201v-926h-227v926h-132zM672 1634h225q6 -24 6 -82v-1458q0 -84 12 -94h-225q-12 6 -12 76v1452q0 64 -6 106z" />
<glyph horiz-adv-x="2048" />
<glyph horiz-adv-x="2048" />
<glyph unicode="&#xd;" horiz-adv-x="2048" />
<glyph unicode=" "  horiz-adv-x="403" />
<glyph unicode="&#x09;" horiz-adv-x="403" />
<glyph unicode="&#xa0;" horiz-adv-x="403" />
<glyph unicode="!" horiz-adv-x="466" d="M102 1626h263l-29 -1206h-207zM115 0v313h239v-313h-239z" />
<glyph unicode="&#x22;" horiz-adv-x="704" d="M55 1628h230l-13 -653h-204zM416 1628h231l-10 -653h-211z" />
<glyph unicode="#" horiz-adv-x="909" d="M20 520l21 170h174l27 195h-185l21 172h186l58 504h139l-60 -504h170l58 504h139l-59 -504h176l-21 -172h-176l-29 -195h189l-19 -170h-190l-61 -547h-138l62 547h-170l-62 -547h-137l62 547h-175zM354 690h168l27 195h-168z" />
<glyph unicode="$" horiz-adv-x="995" d="M37 459h229q0 -87 8 -131q20 -112 158 -129v551q-13 9 -70 41q-179 107 -248 208.5t-69 255.5q0 158 96.5 253t290.5 104v45h129v-49q93 -8 159.5 -34t107 -68.5t62.5 -91.5t34 -116q8 -43 8 -155h-230q3 82 -8 133q-8 56 -38 90t-95 47v-473q6 -3 17.5 -9t17.5 -9 q209 -115 281.5 -218.5t72.5 -283.5q0 -187 -103.5 -292t-285.5 -120v-127h-129v127q-349 24 -387 295q-8 49 -8 156zM268 1257q0 -75 36.5 -127.5t127.5 -111.5v399q-82 -10 -123 -52.5t-41 -107.5zM561 201q72 15 117 66t45 143q0 94 -29.5 145t-132.5 117v-1v-1v-1v-1v-1 v-1v-1v-1v-1v-1v-1v-1v-1v-1v-1v-1v-1v-1v-1v-1v-1v-1v-1v-1v-1v-1v-1v-1v-1v-1v-1v-1v-1v-1v-1v-1v-1v-1v-1v-1v-1v-1v-1v-1v-1v-1v-1v-1v-1v-1v-1v-1v-1v-1v-1v-1v-1v-1v-1v-1v-1v-1v-1v-1v-1v-1v-1v-1v-1v-1v-1v-1v-1v-1v-1v-1v-1v-1v-1v-1v-1v-1v-1v-1v-1v-1v-1v-1v-1 v-1v-1v-2v-1v-1v-1v-1v-1v-1v-1v-1v-1v-2v-1v-1v-1v-1v-1v-1v-2v-1v-1v-1v-1v-1v-2v-1v-1v-1v-1v-2v-1v-1v-1v-1v-2v-1v-1v-1v-2v-1v-1v-1v-2v-1v-1v-1v-2v-1v-1v-1v-2v-1v-1v-2v-1v-1v-2v-1v-1v-1v-2v-1v-1v-2v-1v-1v-2v-1v-1v-2v-1v-2v-1v-1v-2v-1v-1v-2v-1v-2v-1v-1v-2 v-1v-2v-1v-1v-2v-1v-2v-1v-1v-2v-1v-2v-1v-2v-1v-2v-1v-1v-2v-1v-2v-1v-2v-1v-2v-1v-2v-1v-2v-1v-2v-1v-2v-1v-2v-1v-2v-1v-2v-1v-2v-1v-2v-1v-2v-1v-2v-2v-1v-2v-1v-2v-1v-2v-2v-1v-2v-1v-2v-1v-2v-2v-1v-2v-1v-2v-2v-1v-2v-1v-2v-2v-1v-2v-2v-1v-2v-1v-2v-2v-1v-2v-2v-1 v-2v-2v-1v-2v-2v-1v-2v-2v-1v-2v-2v-1v-2v-2v-1v-2v-2v-2v-1v-2v-2v-1v-2v-2v-2v-1v-2v-2v-1v-2v-2v-2v-1v-2v-2v-2v-1v-2v-2v-2v-1v-2v-2v-2v-2v-1v-2v-2v-2v-1v-2v-2v-2v-2v-1v-2v-2v-2v-2v-2v-1v-2v-2v-2v-2v-1v-2v-2v-2v-2v-2v-1v-2v-2v-2v-2v-2v-1v-2v-10z" />
<glyph unicode="%" horiz-adv-x="1490" d="M57 1135v190q0 144 82 235t244 91q85 0 150 -27.5t102 -74.5t55.5 -103.5t18.5 -120.5v-190q0 -144 -87 -235t-241 -91q-156 0 -240 91t-84 235zM233 1141q0 -75 41 -120.5t111 -45.5q71 0 108 45.5t37 118.5v190q0 63 -40.5 107.5t-106.5 44.5q-70 0 -110 -41t-40 -111 v-188zM283 0l761 1583h136l-758 -1583h-139zM778 307v193q0 88 34 160t110 118.5t184 46.5q82 0 146.5 -28t102.5 -75.5t57.5 -104t19.5 -117.5v-193q0 -148 -83.5 -235.5t-248.5 -87.5q-154 0 -238 91t-84 232zM956 315q0 -71 39 -118t111 -47q147 0 147 165v189 q0 62 -39 106.5t-108 44.5q-74 0 -112 -42t-38 -109v-189z" />
<glyph unicode="&#x26;" horiz-adv-x="1230" d="M26 362.5q0 23.5 0.5 52t0.5 36.5q5 193 260 383q-128 227 -131 391v106q3 134 97 220.5t257 86.5q147 0 230 -85t91 -212v-90q-2 -53 -18.5 -105t-38 -92t-60.5 -89t-68.5 -80t-78.5 -80q15 -21 53 -79t64 -96t66.5 -93t78.5 -101q77 131 80 316h215q-3 -301 -129 -492 q77 -92 226 -260h-303q-13 16 -41 49t-43 51q-130 -114 -342 -114q-217 0 -336.5 80t-128.5 260q-1 13 -1 36.5zM256 393q0 -114 56.5 -159.5t174.5 -47.5q130 0 193 82q-119 147 -279 400q-145 -145 -145 -275zM373 1219q7 -122 80 -256q158 151 161 282v62q-3 57 -31 90 t-81 33q-119 0 -129 -127v-84z" />
<glyph unicode="'" horiz-adv-x="444" d="M102 1628h240l-12 -676h-215z" />
<glyph unicode="(" horiz-adv-x="538" d="M49 743q0 252 74 498t160 387h241q-87 -153 -158 -403.5t-71 -485.5q0 -245 68 -485.5t161 -394.5h-241q-91 149 -162.5 386.5t-71.5 497.5z" />
<glyph unicode=")" horiz-adv-x="538" d="M23 -141q93 152 162 393.5t69 486.5q0 236 -71 487t-160 402h241q87 -140 161.5 -386.5t74.5 -498.5q0 -259 -72 -496.5t-164 -387.5h-241z" />
<glyph unicode="*" horiz-adv-x="921" d="M84 1311l57 162l242 -109l-8 278h166l-9 -278l238 109l57 -162l-254 -97l189 -208l-133 -109l-172 225l-168 -223l-133 109l184 206z" />
<glyph unicode="+" horiz-adv-x="878" d="M47 727v178h297v295h195v-295h292v-178h-294v-297h-193v297h-297z" />
<glyph unicode="," horiz-adv-x="495" d="M100 -176l86 174l-12 2h-57v328h258v-334l-139 -207z" />
<glyph unicode="-" horiz-adv-x="700" d="M27 670v233h649v-233h-649z" />
<glyph unicode="." horiz-adv-x="495" d="M115 0v328h268v-328h-268z" />
<glyph unicode="/" horiz-adv-x="466" d="M-55 -328l403 1962h141l-405 -1962h-139z" />
<glyph unicode="0" horiz-adv-x="1011" d="M53 815q0 343 21 485q26 159 132 250.5t302 91.5q195 0 307.5 -93t124.5 -249q18 -242 18 -485q0 -299 -24 -475q-34 -182 -139 -269t-289 -87q-189 0 -290.5 85t-135.5 271q-12 72 -19.5 215.5t-7.5 259.5zM297 815q0 -357 16 -448q27 -172 195 -172q85 0 131.5 42.5 t60.5 129.5q15 100 15 452q0 338 -10 428q-22 176 -199 176q-172 0 -191 -176q-18 -157 -18 -432z" />
<glyph unicode="1" horiz-adv-x="692" d="M45 1294v191q285 35 340 147h180v-1632h-237v1331z" />
<glyph unicode="2" horiz-adv-x="966" d="M43 0v211q38 40 103 107t107 110t100 108t95.5 114t79.5 114t66.5 122.5t41.5 125.5t19 135v102q0 89 -45 129.5t-137 40.5q-84 0 -130.5 -40t-51.5 -115q-2 -20 -2 -156h-238q0 162 2 197q5 69 34 128t81 106.5t136 75t190 27.5q88 0 158 -18t116.5 -48.5t78 -74 t46.5 -92t18 -104.5q1 -19 1 -83t-1 -87q-4 -77 -24.5 -154.5t-49 -143t-76.5 -138t-91.5 -128t-109 -125.5t-113.5 -117t-121 -116h606v-213h-889z" />
<glyph unicode="3" horiz-adv-x="976" d="M39 500h237q0 -131 15 -195q26 -117 184 -117q177 0 201 138q9 53 9.5 137t-9.5 133q-17 78 -66.5 111t-146.5 38l-199 3v200q181 2 195 2q87 4 127.5 34.5t58.5 96.5q9 34 9.5 118.5t-7.5 115.5q-24 110 -168 110q-155 0 -172 -127q-6 -64 -6 -155h-227q0 149 12 219 q24 129 127 204.5t279 75.5q177 0 277.5 -73.5t115.5 -198.5q7 -57 7 -137t-9 -127q-37 -209 -242 -234q111 -6 190.5 -73t96.5 -172q10 -69 11 -163.5t-9 -170.5q-22 -148 -139 -228.5t-314 -80.5q-189 0 -287 63.5t-129 198.5q-22 92 -22 254z" />
<glyph unicode="4" horiz-adv-x="991" d="M23 362v238l524 1034h266v-1052h168v-220h-168v-362h-229v362h-561zM242 582h342v657z" />
<glyph unicode="5" horiz-adv-x="978" d="M51 477h236q0 -54 6 -129q11 -151 190 -151q90 0 141 40.5t54 116.5q8 178 0 373q-3 80 -51.5 118t-130.5 38q-151 0 -187 -146h-231v891h801v-219h-582l-2 -446q31 64 107 97.5t171 33.5q162 0 254.5 -78.5t100.5 -218.5q4 -89 6 -230.5t-4 -261.5q-18 -144 -129 -232.5 t-305 -88.5q-417 0 -441 319q-4 45 -4 174z" />
<glyph unicode="6" horiz-adv-x="991" d="M55 815q0 281 23 469q21 168 127 263t295 95q219 0 315 -113.5t96 -324.5h-223q0 114 -42 170t-150 56q-177 0 -193 -209q-10 -113 -10 -330q36 59 114.5 95t178.5 36q69 0 122 -13.5t98 -47t73.5 -88t44.5 -138t16 -196.5q0 -266 -57 -377q-88 -178 -369 -178 q-338 0 -420 292q-39 155 -39 539zM295 676q6 -272 12 -322q27 -166 203 -166q113 0 154 73t41 276q0 158 -41.5 218t-149.5 60q-87 0 -143 -38.5t-76 -100.5z" />
<glyph unicode="7" horiz-adv-x="841" d="M8 1407v221h823v-203l-448 -1425h-258l461 1407h-578z" />
<glyph unicode="8" horiz-adv-x="985" d="M39 465q0 178 50.5 280t168.5 144q-52 18 -87.5 54.5t-58 111.5t-22.5 186q0 199 93 301.5t311 102.5q210 0 306.5 -102.5t96.5 -309.5q0 -147 -45.5 -234.5t-128.5 -109.5q222 -65 225 -408q3 -256 -104 -376.5t-352 -120.5q-239 0 -346 119t-107 362zM272 471 q0 -158 53 -222.5t169 -64.5q118 0 169.5 70.5t51.5 222.5q0 167 -51 235t-170 68q-118 0 -170 -66.5t-52 -242.5zM315 1206q0 -128 40 -179.5t139 -51.5q96 0 137 51.5t41 179.5q0 126 -44 179t-134 53q-94 0 -136.5 -54.5t-42.5 -177.5z" />
<glyph unicode="9" horiz-adv-x="989" d="M52 1096q-2 169 24 278q33 123 139.5 195.5t273.5 72.5q159 0 260 -65.5t144 -210.5q43 -160 43 -532q0 -383 -18 -506q-25 -163 -134 -253.5t-297 -90.5q-183 0 -283 74.5t-118 211.5q-8 57 -8 150h225q0 -57 4 -94q6 -65 55 -98t130 -33q86 0 137 47t57 133q8 99 8 338 q-41 -52 -118 -83.5t-175 -31.5q-130 0 -215 61t-110 166q-22 102 -24 271zM292.5 1114q-0.5 -139 6.5 -184q27 -133 188 -133q81 0 136 40.5t71 82.5q0 220 -14 350q-9 77 -58 121.5t-128 44.5q-80 0 -130.5 -37.5t-62.5 -100.5q-8 -45 -8.5 -184z" />
<glyph unicode=":" horiz-adv-x="483" d="M125 0v305h246v-305h-246zM125 778v307h246v-307h-246z" />
<glyph unicode=";" horiz-adv-x="483" d="M111 -150l79 150h-63v307h244v-311l-152 -213zM127 778v307h244v-307h-244z" />
<glyph unicode="&#x3c;" horiz-adv-x="937" d="M59 653v205l805 313v-196l-612 -217l612 -228v-190z" />
<glyph unicode="=" horiz-adv-x="876" d="M45 571v170h784v-170h-784zM45 879v170h784v-170h-784z" />
<glyph unicode="&#x3e;" horiz-adv-x="937" d="M66 340v190l614 228l-614 219v194l804 -313v-205z" />
<glyph unicode="?" horiz-adv-x="907" d="M37 1186q0 133 12 192q23 127 125.5 197t288.5 70q384 0 407 -285q6 -76 -2 -180q-5 -61 -27.5 -115t-55 -96.5t-70.5 -84.5t-75 -88.5t-66.5 -98.5t-47.5 -123.5t-16 -155.5h-205q-3 100 12 185t42 143.5t59.5 108.5t66.5 90t63 76.5t48.5 79.5t21.5 89q5 54 0 119 q-6 70 -46.5 103.5t-131.5 33.5q-77 0 -121.5 -33.5t-50.5 -91.5q-6 -69 -6 -135h-225zM289 0v313h243v-313h-243z" />
<glyph unicode="@" horiz-adv-x="1607" d="M57 752q7 185 72.5 339t175 260.5t260.5 165t326 58.5q174 0 308 -59t214 -162t116.5 -237t26.5 -288q-15 -236 -117 -371.5t-268 -135.5q-85 0 -136 47.5t-54 126.5q-39 -79 -117.5 -125.5t-179.5 -46.5q-69 0 -126.5 24.5t-99 71t-60.5 120.5t-11 167q16 210 129 345.5 t295 135.5q80 0 137 -38.5t78 -100.5l27 108h170q-10 -58 -50 -248.5t-49 -236.5q-23 -86 -0.5 -143.5t90.5 -57.5q95 0 150 97.5t66 265.5q14 195 -41.5 339.5t-185 227t-322.5 82.5q-198 0 -355 -90t-250 -255.5t-104 -381.5q-10 -159 16 -287t78.5 -213.5t130.5 -143 t169 -83t196 -25.5q286 0 475 160l53 -82q-100 -80 -224 -126t-306 -46q-127 0 -236.5 31t-200 97.5t-152.5 164.5t-92.5 238t-21.5 311zM571 725q-31 -246 146 -246q176 0 225 205q2 10 11 51t16.5 78t11.5 61q5 53 -35.5 107.5t-114.5 54.5q-98 0 -170.5 -82t-89.5 -229z " />
<glyph unicode="A" horiz-adv-x="1087" d="M0 0l399 1628h320l366 -1628h-249l-84 393h-418l-88 -393h-246zM385 606h317l-129 637q-4 15 -9 53.5t-8 69.5l-3 31q-15 -121 -23 -154z" />
<glyph unicode="B" horiz-adv-x="1138" d="M106 0v1628h535q126 0 199 -29.5t125 -93.5q30 -36 50.5 -114.5t20.5 -178.5q0 -196 -57 -276q-57 -78 -141 -96q52 -6 98.5 -36.5t79.5 -78.5q32 -47 50.5 -126.5t18.5 -164.5q0 -84 -20.5 -167.5t-54.5 -131.5q-97 -135 -328 -135h-576zM346 215h262q122 0 172 53 q47 50 47 195q0 132 -43 194q-39 56 -161 56h-277v-498zM346 924h277q92 0 129 63q34 58 34 191q0 106 -38 170q-37 65 -146 65h-256v-489z" />
<glyph unicode="C" horiz-adv-x="1116" d="M57 821q0 396 86 580q113 241 443 241q364 0 450 -303q35 -122 35 -290h-244q0 137 -28 229q-21 67 -79.5 102t-139.5 35q-153 0 -207 -115q-31 -65 -46.5 -203t-15.5 -276q0 -351 49 -483q51 -137 226 -137q147 0 202 127q41 94 41 241h244q0 -171 -57 -321 q-52 -134 -158 -200t-278 -66q-305 0 -420 213q-51 94 -77 260t-26 366z" />
<glyph unicode="D" horiz-adv-x="1110" d="M106 0v1628h494q141 0 230 -41t141 -125q82 -124 82 -618q0 -552 -78 -670q-38 -58 -79.5 -94t-109 -58t-161.5 -22h-519zM348 211h238q69 0 112.5 22t69.5 72q23 47 32 214t9 325q0 128 -11.5 273t-33.5 186q-28 57 -71.5 81.5t-114.5 24.5h-230v-1198z" />
<glyph unicode="E" horiz-adv-x="980" d="M106 0v1628h818v-227h-576v-469h545v-227h-545v-478h582v-227h-824z" />
<glyph unicode="F" horiz-adv-x="952" d="M106 0v1628h816v-227h-572v-467h535v-229h-535v-705h-244z" />
<glyph unicode="G" horiz-adv-x="1101" d="M57 811q0 425 80 586q125 248 426 248q329 0 422 -246q23 -57 36 -155.5t13 -153.5h-237q0 118 -45 225q-42 104 -183 104q-148 0 -200 -116q-60 -142 -60 -494q0 -193 12 -313t44 -185q55 -116 208 -116q99 0 162.5 48.5t77.5 129.5l2 317h-297v211h524v-500v-114.5 t0.5 -109.5t1 -89t0.5 -64v-24h-186l-12 115q-91 -133 -311 -133q-290 0 -394 231q-45 101 -64.5 238t-19.5 360z" />
<glyph unicode="H" horiz-adv-x="1142" d="M106 0v1628h244v-694h443v694h241v-1628h-241v700h-443v-700h-244z" />
<glyph unicode="I" horiz-adv-x="462" d="M106 0v1628h252v-1628h-252z" />
<glyph unicode="J" horiz-adv-x="729" d="M20 10v215q86 -12 185 -12q186 3 186 190v1225h244v-1270q0 -366 -383 -366q-140 0 -232 18z" />
<glyph unicode="K" horiz-adv-x="1081" d="M106 0v1628h244v-676l469 676h256l-471 -694l477 -934h-278l-361 717l-92 -135v-582h-244z" />
<glyph unicode="L" horiz-adv-x="923" d="M106 0v1628h248v-1401h549v-227h-797z" />
<glyph unicode="M" horiz-adv-x="1433" d="M106 0v1628h328l291 -1177l287 1177h317v-1628h-233v1083l-267 -1083h-229l-268 1075l2 -1075h-228z" />
<glyph unicode="N" horiz-adv-x="1126" d="M106 0v1628h263l426 -1063v1063h229v-1628h-252l-436 1085v-1085h-230z" />
<glyph unicode="O" d="M57 819q0 177 18 327.5t52 227.5q115 268 444 268q176 0 289 -68t158 -192q69 -188 69 -559q0 -408 -90 -606q-107 -235 -426 -235q-315 0 -424 223q-90 184 -90 614zM307 811q0 -355 66 -498q24 -50 74.5 -81t127.5 -31q140 0 205 116q31 52 47.5 202.5t16.5 295.5 q0 179 -11 288.5t-47 192.5q-27 64 -76.5 94.5t-136.5 30.5q-86 0 -133.5 -32.5t-74.5 -96.5q-26 -61 -39.5 -152.5t-16 -159.5t-2.5 -169z" />
<glyph unicode="P" horiz-adv-x="1079" d="M106 0v1628h551q207 0 295 -125q78 -111 78 -383q0 -278 -74 -379q-88 -122 -301 -131h-303v-610h-246zM350 840h250q68 0 105 20t57 62q13 28 16.5 68t3.5 126q0 158 -24 211q-39 74 -152 74h-256v-561z" />
<glyph unicode="Q" d="M57 819q0 162 18.5 326t49.5 225q111 275 446 275q177 0 286 -66t159 -197q36 -78 53.5 -232t17.5 -327q0 -166 -21 -323.5t-56 -247.5q-29 -74 -88 -133t-111 -78q10 -9 36.5 -28t39.5 -29q64 -46 96 -56l-135 -178q-45 15 -176 111q-108 80 -146 131q-61 0 -110 10 q-89 16 -167.5 79.5t-119.5 162.5q-72 177 -72 575zM307 807q0 -144 15.5 -285.5t48.5 -216.5q23 -49 76.5 -80.5t127.5 -31.5q152 0 209 110q28 57 44 211.5t16 298.5q0 133 -14.5 283.5t-43.5 208.5q-30 59 -79 89.5t-134 30.5q-80 0 -124.5 -29.5t-77.5 -88.5 q-32 -54 -48 -207t-16 -293z" />
<glyph unicode="R" horiz-adv-x="1110" d="M106 0v1628h562q224 0 303 -174q28 -60 36.5 -121.5t8.5 -169.5q0 -181 -41 -274q-24 -52 -64 -87t-84 -46l260 -756h-262l-235 696h-244v-696h-240zM348 911h289q87 6 113 66q22 55 22 164q0 122 -12 168q-29 96 -139 96h-273v-494z" />
<glyph unicode="S" horiz-adv-x="1058" d="M39 463h242q7 -143 69.5 -204.5t177.5 -61.5q113 0 173.5 52.5t60.5 158.5q0 42 -10.5 78t-34 67t-46.5 54.5t-64.5 50t-70 42.5t-79.5 43l-1 1h-1l-1 1h-1l-1 1h-1l-1 1l-2 1q-157 83 -225 137q-161 130 -169 326q-1 12 -1 24q0 196 118 301.5t347 105.5q237 0 354 -116 t117 -365h-244q0 137 -49.5 198.5t-181.5 61.5q-106 0 -159.5 -44.5t-53.5 -139.5q0 -23 5.5 -45t13 -40t23 -37t28 -32.5t36.5 -31t39 -28t45.5 -27.5t46.5 -25.5t50.5 -26.5t50.5 -26q65 -35 110.5 -63t98.5 -73.5t85.5 -93.5t54.5 -115.5t22 -146.5q0 -213 -120.5 -328.5 t-348.5 -115.5q-121 0 -209.5 24t-154.5 79t-100.5 149t-37.5 229z" />
<glyph unicode="T" horiz-adv-x="948" d="M8 1401v227h934v-227h-344v-1401h-248v1401h-342z" />
<glyph unicode="U" horiz-adv-x="1122" d="M92 379v1249h242v-1220q0 -100 58.5 -153.5t170.5 -53.5q101 0 161 54t60 151v1222h244v-1257q0 -185 -126 -287t-339 -102q-216 0 -343.5 100t-127.5 297z" />
<glyph unicode="V" horiz-adv-x="1091" d="M0 1628h254l295 -1284l293 1284h248l-404 -1628h-289z" />
<glyph unicode="W" horiz-adv-x="1587" d="M0 1628h254q211 -1166 211 -1266q0 44 51 360.5t102 611.5l50 294h262q205 -1166 205 -1266q0 44 52.5 360.5t105.5 611.5l53 294h239l-307 -1628h-279q-200 1164 -204 1270q0 -47 -52.5 -364.5t-104.5 -611.5l-52 -294h-275z" />
<glyph unicode="X" horiz-adv-x="1060" d="M4 0l402 831l-373 797h260l248 -528l247 528h256l-380 -790l393 -838h-260l-271 578l-266 -578h-256z" />
<glyph unicode="Y" horiz-adv-x="1110" d="M2 1628h250l299 -792l315 792h244l-440 -1048v-580h-248v575z" />
<glyph unicode="Z" horiz-adv-x="968" d="M31 0v197l628 1204h-593v227h862v-190l-627 -1211h643v-227h-913z" />
<glyph unicode="[" horiz-adv-x="575" d="M92 -344v1972h438v-182h-221v-1612h221v-178h-438z" />
<glyph unicode="\" horiz-adv-x="466" d="M-20 1634h139l405 -1962h-137z" />
<glyph unicode="]" horiz-adv-x="581" d="M51 -166h221v1614h-221v180h438v-1972h-438v178z" />
<glyph unicode="^" horiz-adv-x="995" d="M39 1247l356 387h213l355 -387l-144 -135l-319 346l-320 -346z" />
<glyph unicode="_" horiz-adv-x="733" d="M0 -119h731v-200h-731v200z" />
<glyph unicode="`" horiz-adv-x="759" d="M150 1487h241l158 -281h-215z" />
<glyph unicode="a" horiz-adv-x="927" d="M49 309q0 196 122 290.5t370 94.5q22 0 94 -2q0 122 -2 142q-9 110 -154 110q-99 0 -135 -41.5t-39 -126.5h-211q0 182 91.5 276.5t306.5 94.5q333 0 356 -266q5 -115 5 -238q0 -61 -1 -125q0 -48 -1 -167t-1 -156q0 -163 16 -195h-209q-3 0 -6.5 12.5t-6.5 35t-3 46.5 q-45 -52 -108.5 -78t-163.5 -26q-158 0 -239 75.5t-81 243.5zM270 311q0 -73 41.5 -108t110.5 -35q204 0 217 248v102q-50 4 -98 4q-140 0 -205.5 -50t-65.5 -161z" />
<glyph unicode="b" horiz-adv-x="991" d="M84 0v1634h223v-630q22 60 98 100.5t179 40.5q188 0 274 -137.5t86 -425.5q0 -307 -89.5 -447.5t-270.5 -140.5q-211 0 -281 112l-22 -106h-197zM301 565q0 -198 44 -286.5t163 -88.5q118 0 163.5 81.5t45.5 297.5q0 191 -49.5 277t-155.5 86q-64 0 -107 -26.5t-65 -78.5 t-30.5 -113.5t-8.5 -148.5z" />
<glyph unicode="c" horiz-adv-x="917" d="M49 565q0 254 82 406q47 86 134 131t204 45q299 0 377 -219q28 -69 28 -230h-217q0 79 -22 136q-21 54 -58.5 79t-103.5 25q-118 0 -158 -94q-23 -55 -31 -118t-8 -163q0 -207 41 -289q21 -47 60.5 -67.5t101.5 -20.5q129 0 160 86q23 63 23 146h212q0 -145 -49 -252 q-83 -180 -350 -180q-119 0 -205 38t-131 109q-44 65 -67 180t-23 252z" />
<glyph unicode="d" horiz-adv-x="966" d="M49 551q0 302 92.5 444t276.5 142q179 0 248 -115v608h223v-1493l8 -137h-199l-26 113q-77 -127 -271 -127q-181 0 -266.5 140.5t-85.5 424.5zM274 555q0 -201 40.5 -285t152.5 -84q109 0 156 86t47 281q0 205 -39 289t-148 84q-122 0 -165.5 -87t-43.5 -284z" />
<glyph unicode="e" horiz-adv-x="917" d="M49 561q0 262 62 383q102 203 360 203q134 0 222.5 -52t131.5 -137q37 -80 51 -194q9 -79 9 -188q0 -49 -2 -103h-613q8 -154 51 -222.5t152 -68.5q110 0 152 56q39 52 39 124h213q0 -55 -24 -125.5t-67 -125.5q-101 -127 -313 -127q-254 0 -356 188q-68 127 -68 389z M266 655h398q0 44 -9 112.5t-24 94.5q-49 86 -162 86q-110 0 -162 -78q-41 -62 -41 -215z" />
<glyph unicode="f" horiz-adv-x="600" d="M18 926v200h136v248q0 125 65 198t205 73q110 0 180 -9v-196q-81 6 -110 6q-59 0 -87 -29.5t-28 -75.5v-217h213v-198h-213v-926h-225v926h-136z" />
<glyph unicode="g" horiz-adv-x="929" d="M14 -57q0 91 42 135.5t122 71.5q-65 15 -101 59t-36 102q0 56 29 103t82 73q-27 15 -51.5 64t-30.5 113q-3 31 -3 99.5t3 100.5q9 123 111 205t270 82q182 0 272 -90q26 41 93 59q53 14 104 14q14 0 28 -1v-166q-22 0 -80 -5.5t-67 -11.5q31 -48 37 -135q1 -24 1 -49 q0 -59 -8 -123q-12 -122 -106.5 -193t-253.5 -71q-123 0 -203 41q-41 -10 -41 -55q0 -38 49 -50.5t205 -17.5q245 -7 349 -76.5t104 -210.5q0 -158 -116 -237.5t-357 -79.5q-226 0 -336.5 61t-110.5 189zM209 -10q0 -129 250 -129q137 0 199.5 33t62.5 100q0 60 -49 80.5 t-195 31.5q-157 5 -170 7q-98 -40 -98 -123zM285 688q3 -62 45 -98.5t123 -36.5q84 0 125.5 37.5t44.5 97.5q1 15 1 38q0 38 -3 97q-10 131 -166 131q-78 0 -122.5 -37.5t-47.5 -103.5q-2 -28 -2 -59.5t2 -65.5z" />
<glyph unicode="h" horiz-adv-x="935" d="M84 0v1634h223v-635q59 146 281 146q131 0 200.5 -73.5t69.5 -223.5q0 -626 1 -736.5t5 -111.5h-227q-4 0 -4 340v444q0 142 -150 142q-76 0 -125 -47t-49 -129v-750h-225z" />
<glyph unicode="i" horiz-adv-x="407" d="M84 1219v243h240v-243h-240zM88 92v1034h229v-1026q0 -91 9 -100h-228q-10 5 -10 92z" />
<glyph unicode="j" horiz-adv-x="413" d="M-84 -182q20 -2 68 -2q59 0 87.5 26.5t28.5 87.5v1196h230v-1241q0 -268 -264 -268q-104 0 -150 12v189zM94 1219v243h240v-243h-240z" />
<glyph unicode="k" horiz-adv-x="894" d="M84 0v1634h225v-962l324 454h246l-285 -385l307 -741h-246l-219 528l-127 -172v-356h-225z" />
<glyph unicode="l" horiz-adv-x="399" d="M84 1634h225q6 -24 6 -82v-1458q0 -80 7 -94h-226q-8 5 -8 76v1452q0 74 -4 106z" />
<glyph unicode="m" horiz-adv-x="1415" d="M84 0v1126h221v-133q23 69 99 110.5t176 41.5q84 0 141.5 -41.5t81.5 -114.5q23 75 93.5 115.5t166.5 40.5q266 0 266 -283q0 -855 6 -864h-211q-6 0 -6 786q0 146 -139 146q-66 0 -111 -47t-45 -113v-770h-217v795q0 60 -36.5 97.5t-100.5 37.5q-69 0 -114.5 -51.5 t-45.5 -116.5v-762h-225z" />
<glyph unicode="n" horiz-adv-x="935" d="M84 0v1126h219v-133q28 76 102.5 114t169.5 38q283 0 283 -295q0 -848 4 -850h-221q-6 0 -7 99t-1 679q0 148 -146 148q-76 0 -127 -47t-51 -138v-741h-225z" />
<glyph unicode="o" horiz-adv-x="958" d="M49 565q0 255 74 391q48 88 137 139.5t221 51.5q134 0 223.5 -51t131.5 -138q73 -153 73 -393q0 -233 -73 -385q-43 -92 -135 -143t-222 -51q-259 0 -354 188q-35 62 -55.5 170.5t-20.5 220.5zM274 565q0 -196 37 -280q42 -95 170 -95q124 0 168 95q18 43 28.5 122 t10.5 158q0 208 -37 283q-42 92 -170 92q-126 0 -170 -100q-37 -81 -37 -275z" />
<glyph unicode="p" horiz-adv-x="985" d="M84 -342v1468h217l4 -116q25 59 100 97t170 38q84 0 147.5 -28t104 -76.5t66 -121t35.5 -154t10 -183.5q0 -291 -92 -439.5t-268 -148.5q-203 0 -269 100v-436h-225zM305 571q0 -158 19.5 -239t61 -111.5t122.5 -30.5q54 0 89 15t62.5 56t39.5 117t12 193q0 209 -44 288 t-161 79q-107 0 -154 -85.5t-47 -281.5z" />
<glyph unicode="q" horiz-adv-x="980" d="M49 553q0 586 377 586q189 0 260 -123v110h213v-1310q0 -146 6 -158h-217l-8 10v443q-28 -55 -95 -90t-165 -35q-188 0 -279.5 140t-91.5 427zM274 563q0 -206 47.5 -293.5t161.5 -87.5q118 0 159.5 81t41.5 304q0 194 -46.5 279.5t-152.5 85.5q-51 0 -87.5 -16.5 t-65.5 -57t-43.5 -114t-14.5 -181.5z" />
<glyph unicode="r" horiz-adv-x="675" d="M84 0v1126h223v-149q15 72 83 121t153 49q63 0 121 -12v-236q-86 21 -162 21q-88 0 -139.5 -65t-51.5 -193v-662h-227z" />
<glyph unicode="s" horiz-adv-x="876" d="M43 346h219q0 -55 4 -92q13 -82 183 -82q87 0 126 31.5t39 95.5q0 58 -34.5 88.5t-126.5 69.5q-35 15 -93 39t-73 30q-116 50 -174 122.5t-58 201.5q0 131 96 214t273 83q319 0 369 -205q12 -56 12 -164h-215q0 84 -6 99q-15 38 -48 55.5t-108 17.5q-78 0 -116 -25.5 t-38 -82.5q0 -54 31 -85t109 -61q36 -15 89 -36.5t79 -32.5q126 -49 189 -122t63 -198q0 -154 -96.5 -238.5t-286.5 -84.5q-187 0 -284 53t-116 170q-8 60 -8 139z" />
<glyph unicode="t" horiz-adv-x="598" d="M4 926v200h121q2 5 4 57.5t3 102.5l1 49l221 6v-217h219v-198h-215q0 -15 -0.5 -87t-1 -213t-0.5 -325q0 -63 26 -84.5t85 -21.5q35 0 98 10v-199q-69 -16 -186 -16q-51 0 -94 12.5t-79 40t-56.5 77t-20.5 116.5v690h-125z" />
<glyph unicode="u" horiz-adv-x="933" d="M74 1126h1h1h1h1h1h1h1h1h1h1h1h1h1h1h1h1h1h1h1h1h1h1h1h1h1h1h1h1h1h1h1h1h1h1h1h1h1h1h1h2h1h1h1h1h1h1h1h1h1h2h1h1h1h1h1h2h1h1h1h2h1h1h1h2h1h1h1h2h1h1h2h1h1h2h1h1h2h1h2h1h1h2h1h2h1h1h2h1h2h1h2h1h2h1h2h1h2h1h2h1h2h1h2h1h2h2h1h2h1h2h2h1h2h1h2h2h1h2h2h1h2 h2h1h2h2h1h2h2h1h2h2h2h1h2h2h2h1h2h2h2h2h1h2h2h2h2h1h2h2h2h2h2h2h1h2h2h2h10q4 0 4 -804q0 -74 39.5 -110t108.5 -36q84 0 130 44.5t46 125.5v780h223v-972q0 -112 6 -154h-217l-6 109q-71 -121 -270 -121q-125 0 -205 68.5t-80 195.5q0 868 -6 874z" />
<glyph unicode="v" horiz-adv-x="923" d="M8 1126h236l221 -882l225 882h225l-313 -1126h-278z" />
<glyph unicode="w" horiz-adv-x="1421" d="M8 1126h232l188 -868l166 868h250l174 -868l180 868h219l-276 -1126h-258q-133 645 -156 741q-4 16 -7.5 70.5t-5.5 100.5l-1 46q-7 -182 -13 -215l-155 -743h-260z" />
<glyph unicode="x" horiz-adv-x="878" d="M4 0l307 573l-288 553h245l181 -352l182 352h233l-295 -542l303 -584h-245l-197 387l-190 -387h-236z" />
<glyph unicode="y" horiz-adv-x="923" d="M8 1126h236q198 -686 225 -790l215 790h231l-448 -1468h-236l113 371z" />
<glyph unicode="z" horiz-adv-x="802" d="M37 0v178l467 748h-455v200h711v-192l-459 -735h473v-199h-737z" />
<glyph unicode="{" horiz-adv-x="706" d="M57 641v186q111 1 156 55.5t45 151.5q0 56 -19.5 162t-19.5 180q0 107 68.5 179.5t195.5 72.5h172v-184q-130 7 -181 -30.5t-48 -133.5q1 -23 18 -132.5t17 -160.5q0 -100 -44 -169.5t-141 -80.5q51 -4 88.5 -29t58 -63.5t29.5 -81t9 -90.5q0 -71 -17 -229.5t-18 -235.5 q-3 -92 47 -128t182 -30v-186h-166q-140 0 -206 75t-66 193q0 76 19.5 244t19.5 244q0 221 -199 221z" />
<glyph unicode="|" horiz-adv-x="509" d="M166 -410v2048h182v-2048h-182z" />
<glyph unicode="}" horiz-adv-x="706" d="M49 -150q131 -6 182 30t48 128q-1 78 -19 236t-18 229q0 48 9 90.5t29 81t58 63.5t90 29q-97 11 -141.5 80.5t-44.5 169.5q0 50 16.5 158t17.5 135q5 96 -45.5 133.5t-181.5 30.5v184h170q128 0 197 -72.5t69 -179.5q0 -74 -19.5 -180t-19.5 -162q0 -97 45 -151.5 t156 -55.5v-186q-198 0 -198 -221q0 -76 18 -244t18 -244q0 -118 -65.5 -193t-206.5 -75h-164v186z" />
<glyph unicode="~" horiz-adv-x="958" d="M10 655q13 171 85 258.5t190 87.5q69 0 122 -29.5t107 -92.5q4 -5 23 -28.5t25.5 -31t23.5 -24.5t28.5 -23t28 -12t33.5 -6q51 0 81.5 45.5t35.5 124.5l153 -41q-14 -153 -81.5 -235.5t-182.5 -82.5q-69 0 -119 24t-102 83q-14 15 -41 46t-41.5 45.5t-39 28t-50.5 13.5 q-37 0 -63 -29.5t-36 -68t-12 -84.5z" />
<glyph unicode="&#xa1;" horiz-adv-x="466" d="M102 -6l29 1216h207l27 -1216h-263zM113 1317v313h241v-313h-241z" />
<glyph unicode="&#xa2;" horiz-adv-x="927" d="M55 805q0 224 64 369q35 81 108.5 133t182.5 65v144h145v-142q126 -10 198.5 -61.5t112.5 -147.5q31 -76 31 -229h-215q0 80 -10 127q-10 49 -41 83t-76 46v-776q79 22 109 108q18 52 18 135h215q0 -148 -41 -235q-81 -172 -301 -193v-163h-145v165q-224 27 -295 191 q-27 61 -43.5 163.5t-16.5 217.5zM293 805q0 -148 29 -266q18 -82 88 -115v760q-62 -24 -82 -101q-35 -146 -35 -278z" />
<glyph unicode="&#xa3;" horiz-adv-x="991" d="M66 0v205q191 80 208 278q6 57 -18 131h-174v199h117q-100 196 -105 371q-4 85 0 166q3 55 26.5 104.5t69.5 93t126 69t184 25.5q91 0 163.5 -20t118 -52t75.5 -75.5t42.5 -86.5t13.5 -89v-281h-233v246q0 65 -45.5 106.5t-126.5 41.5q-80 0 -121.5 -41.5t-44.5 -106.5 v-123q3 -95 26 -174.5t66 -173.5h395v-199h-344q22 -71 19 -131q-8 -218 -170 -280h592v-203h-860z" />
<glyph unicode="&#xa4;" horiz-adv-x="1079" d="M23 631v149h110v60h-110v149h110q4 201 21 311q26 159 131 250.5t301 91.5q195 0 307.5 -93t124.5 -249q9 -119 12 -223h-237q0 71 -9 172q-22 176 -200 176q-174 0 -193 -176q-10 -77 -16 -260h352v-149h-354v-60h354v-149h-352q3 -215 14 -266q27 -172 197 -172 q85 0 131.5 42.5t60.5 129.5q6 40 10 161h240q-6 -107 -16 -186q-34 -182 -139 -269t-289 -87q-189 0 -289.5 85t-134.5 271q-16 86 -23 291h-114z" />
<glyph unicode="&#xa5;" horiz-adv-x="1114" d="M2 1628h258q297 -702 299 -770q1 31 79.5 223.5t157.5 369.5l78 177h259l-457 -1018v-78h379v-149h-379v-59h379v-150h-375v-174h-244v174h-368v150h372v59h-372v149h372v72z" />
<glyph unicode="&#xa6;" horiz-adv-x="509" d="M164 -410v873h182v-873h-182zM164 731v907h182v-907h-182z" />
<glyph unicode="&#xa7;" horiz-adv-x="817" d="M51 358h211q0 -84 2 -92q5 -65 42 -93t124 -28q83 0 117 28.5t37 88.5v78q-4 60 -39 96t-113 68q-208 94 -231 104q-62 32 -99.5 82t-44.5 111q-13 99 4 166q24 107 123 151q-86 64 -92 193v102q7 108 89.5 164.5t224.5 56.5q143 0 222.5 -52.5t90.5 -180.5q0 -7 1 -57 t1 -60h-168q0 80 -2 88q-3 56 -37 80.5t-98 24.5q-67 0 -101.5 -21t-40.5 -70v-63q3 -54 32 -78.5t112 -58.5q76 -28 168 -70q129 -59 157 -192q9 -37 4.5 -91.5t-16.5 -91.5q-34 -99 -131 -137q165 -74 180 -244q2 -14 2 -59t-2 -59q-13 -262 -352 -262q-169 0 -262 59 t-111 201q-1 8 -2 58t-2 60zM233 932q-3 -35 4 -71.5t25 -55.5q62 -59 240 -125q27 1 48.5 30.5t29.5 71.5q3 34 -5 72.5t-26 52.5q-62 62 -236 129q-28 -3 -50 -32t-30 -72z" />
<glyph unicode="&#xa8;" horiz-adv-x="759" d="M119 1206v240h194v-240h-194zM446 1206v240h197v-240h-197z" />
<glyph unicode="&#xa9;" horiz-adv-x="1155" d="M51 932q-5 132 0 254q9 219 150 336.5t379 117.5q234 0 374 -115.5t152 -340.5q4 -70 0 -252q-8 -227 -144 -352t-380 -125q-247 0 -386.5 126.5t-144.5 350.5zM135 961q4 -209 121.5 -314.5t323.5 -105.5q215 0 324.5 103.5t115.5 316.5v221q-7 182 -122 276t-318 94 q-201 0 -319.5 -92t-125.5 -274v-225zM283 1030q0 140 12 184q17 87 95.5 136t197.5 49q126 0 198 -53t80 -136q6 -41 6 -104h-161q0 54 -4 72q-17 69 -123 69q-113 0 -129 -94q-4 -25 -4 -123q0 -74 4 -110q6 -56 37 -79.5t94 -23.5q58 0 86 16.5t35 59.5q6 41 6 74h159 q0 -73 -8 -119q-14 -81 -89 -128.5t-195 -47.5q-124 0 -195.5 47t-89.5 133q-12 71 -12 178z" />
<glyph unicode="&#xaa;" horiz-adv-x="851" d="M33 762q-6 70 0 139q9 114 93 189.5t245 97.5q82 11 194 14q0 109 -2 146q-3 106 -141 106q-90 0 -123 -70q-18 -58 -18 -120h-209q0 109 28 194q31 87 114.5 138t215.5 51q176 0 257 -64t89 -184q6 -140 2 -350q0 -45 -1 -152.5t-1 -146.5q0 -162 17 -195h-213 q-1 10 -3.5 24.5t-5.5 44.5t-2 40q-75 -117 -264 -117q-118 0 -193 53.5t-79 161.5zM41 317v175h772v-175h-772zM252 893q-5 -83 6 -115q23 -61 127 -61q102 0 145 78q32 52 35 145v102q-77 7 -116 5q-107 -5 -156 -48q-37 -30 -41 -106z" />
<glyph unicode="&#xab;" horiz-adv-x="944" d="M57 618v158l422 404v-254l-233 -228l233 -225v-254zM471 618v158l422 404v-254l-236 -228l236 -225v-254z" />
<glyph unicode="&#xac;" horiz-adv-x="874" d="M4 10v201h399l-2 381q-82 13 -133 67q-34 -42 -43 -57q-22 -31 -48 -7q-21 19 -16 43q5 15 23 19q7 1 18.5 3.5t27 7t24.5 6.5q-53 66 -53 151q0 82 53 148q-45 12 -61 14q-29 5 -23 35q5 26 27 35q20 7 36 -15q2 -3 39 -51q56 56 131 68l3 387h-400v182h862v-182h-401 l2 -387q72 -12 127 -64q12 14 41 54q21 30 47 8q22 -19 17 -43q-3 -18 -23 -21q-16 -2 -66 -14q60 -66 60 -154q0 -85 -51 -145q47 -12 59 -14q29 -5 23 -34q-5 -27 -27 -36q-21 -9 -37 14q-8 14 -37 47q-56 -56 -135 -65l-2 -381h399v-201h-860zM260 825q0 -64 40.5 -112 t102.5 -60v97l31 67l31 -67v-97q62 11 104.5 59.5t42.5 112.5t-41.5 113t-103.5 61v-96l-33 -69l-28 69v96q-62 -12 -104 -61t-42 -113z" />
<glyph unicode="&#xad;" horiz-adv-x="700" d="M27 670v233h649v-233h-649z" />
<glyph unicode="&#xae;" horiz-adv-x="1155" d="M51 932q-5 132 0 254q9 219 150 336.5t379 117.5q234 0 374 -115.5t152 -340.5q4 -70 0 -252q-8 -227 -144 -352t-380 -125q-247 0 -386.5 126.5t-144.5 350.5zM135 961q4 -209 121.5 -314.5t323.5 -105.5q428 0 440 420v221q-7 182 -122 276t-318 94q-201 0 -319.5 -92 t-125.5 -274v-225zM311 694v678h316q120 0 188 -61q26 -24 39.5 -63t13.5 -74q0 -37 -10 -78t-29 -64q-39 -46 -94 -55l133 -283h-172l-114 258h-103v-258h-168zM479 1073q86 2 152 2q31 0 50 23t19 53q0 36 -23 59t-61 23h-137v-160z" />
<glyph unicode="&#xaf;" horiz-adv-x="759" d="M113 1239v145h534v-145h-534z" />
<glyph unicode="&#xb0;" horiz-adv-x="548" d="M37 1309q0 101 70 172t167 71q100 0 170 -71t70 -172q0 -99 -70.5 -169.5t-169.5 -70.5q-97 0 -167 71t-70 169zM170 1309q0 -43 30.5 -73t73.5 -30q44 0 74.5 30t30.5 73q0 44 -30.5 75t-74.5 31q-43 0 -73.5 -31t-30.5 -75z" />
<glyph unicode="&#xb1;" horiz-adv-x="872" d="M47 840v153h299v226h178v-226h301v-153h-301v-219h-176v219h-301zM51 412v153h770v-153h-770z" />
<glyph unicode="&#xb2;" horiz-adv-x="733" d="M80 795v118q40 48 99.5 99.5t108 90.5t93.5 81.5t70.5 89t25.5 96.5v45q0 50 -27 73t-90 23q-47 0 -70 -18.5t-34 -62.5q-6 -23 -6 -89h-164q0 82 6 109q38 184 287 184q265 0 272 -200q1 -6 1 -21t-0.5 -33t-0.5 -22q-1 -61 -37 -121t-80 -100.5t-114 -103t-109 -105.5 h346v-133h-577z" />
<glyph unicode="&#xb3;" horiz-adv-x="747" d="M74 1053h168v-95q1 -35 33.5 -49t99.5 -14q70 0 100.5 22t32.5 66v72q-3 46 -33 66.5t-115 21.5l-129 2v123q123 2 131 2q72 8 99 29t28 75v70q-3 38 -29 56t-83 18q-111 0 -117 -72v-76h-162q0 28 8 98q9 78 79.5 123t197.5 45q257 0 272 -172v-69q-3 -78 -42 -120.5 t-140 -55.5q201 -5 209 -148q3 -36 0 -86q-12 -203 -305 -203q-139 0 -214 44.5t-83 125.5q-1 20 -2.5 44.5t-2.5 40t-1 16.5z" />
<glyph unicode="&#xb4;" horiz-adv-x="759" d="M231 1206l154 281h242l-185 -281h-211z" />
<glyph unicode="&#xb6;" horiz-adv-x="870" d="M37 1038q0 260 39 404q28 91 99 143.5t175 52.5q68 0 129 -22.5t86 -61.5l23 78h219v-1849h-90v1677h-62v-1677h-92v745q-29 -39 -89 -63.5t-126 -24.5q-227 0 -280 203q-31 143 -31 395zM285 1040q0 -202 26 -309q13 -40 48 -61t81 -21q51 0 84.5 27t36.5 72q2 29 2 307 v280q-1 44 -36 69.5t-76 25.5q-59 0 -95 -22.5t-49 -78.5q-22 -99 -22 -289z" />
<glyph unicode="&#xb7;" horiz-adv-x="495" d="M109 641v330h278v-330h-278z" />
<glyph unicode="&#xb8;" horiz-adv-x="759" d="M221 -274q97 -25 161 -5.5t64 72.5q0 44 -39.5 66t-105.5 22v119h141v-53q77 0 130 -40t53 -130q0 -108 -112.5 -159t-291.5 -3v111z" />
<glyph unicode="&#xb9;" horiz-adv-x="624" d="M53 1395v123q70 1 156.5 38.5t105.5 73.5h121v-835h-164v630z" />
<glyph unicode="&#xba;" horiz-adv-x="878" d="M41 317v175h797v-175h-797zM41 1100q0 218 65 354q88 191 332 191q256 0 338 -195q55 -121 55 -350q0 -217 -61 -361q-40 -91 -124.5 -143.5t-209.5 -52.5q-248 0 -334 194q-61 135 -61 363zM258 1098q0 -195 45 -293q33 -74 133 -74q102 0 133 76q43 97 43 291 q0 203 -32 276q-40 78 -144 78q-101 0 -139 -80q-39 -82 -39 -274z" />
<glyph unicode="&#xbb;" horiz-adv-x="944" d="M53 242v254l232 227l-232 225v252l424 -399v-160zM467 242v254l231 227l-231 225v252l424 -399v-160z" />
<glyph unicode="&#xbc;" horiz-adv-x="1257" d="M18 1395v123q70 1 156 38.5t107 73.5h120v-835h-163v630zM225 0q191 523 312 860l274 768h119q-184 -504 -301 -831l-285 -797h-119zM573 207v133l361 491h172v-497h113v-129h-113v-205h-158v207h-375zM731 334h217v303z" />
<glyph unicode="&#xbd;" horiz-adv-x="1245" d="M12 1395v123q71 1 157 38.5t105 73.5h123v-835h-164v630zM186 0q193 523 314 860q48 132 116 324t112 318l44 126h121q-186 -504 -303 -831l-283 -797h-121zM625 0v119q47 56 124.5 122t132.5 109.5t97.5 103.5t42.5 121v46q0 50 -27.5 73t-89.5 23q-47 0 -71 -19 t-35 -63q-6 -23 -6 -88h-164q0 72 8 108q33 185 285 185q263 0 274 -201q0 -7 -1 -37.5t-1 -38.5q-1 -61 -37 -121t-80 -100.5t-114 -103t-109 -105.5h346v-133h-575z" />
<glyph unicode="&#xbe;" horiz-adv-x="1402" d="M25 1053h168v-95q0 -35 33 -49t100 -14q70 0 99.5 21.5t31.5 66.5q2 34 0 72q-2 46 -32 66.5t-114 21.5l-131 2v123q123 2 133 2q71 8 98.5 29t28.5 75v70q-3 38 -30 56t-84 18q-109 0 -115 -72q0 -14 -0.5 -32t-1 -30.5t-0.5 -13.5h-162q0 28 8 98q11 78 81 123t198 45 q257 0 272 -172v-69q-3 -78 -43 -120.5t-141 -55.5q112 -3 159.5 -45t51.5 -103q3 -36 0 -86q-12 -203 -307 -203q-139 0 -214 44.5t-81 125.5q-1 20 -2.5 44.5t-2.5 40t-1 16.5zM379 0q188 523 311 860l273 768h118q-182 -504 -301 -831l-284 -797h-117zM727 207v133 l363 491h172v-497h110v-129h-110v-205h-160v207h-375zM887 334h215v305z" />
<glyph unicode="&#xbf;" horiz-adv-x="907" d="M41 449q5 61 28 115t55.5 96t71 84.5t75.5 88.5t67.5 98t48.5 123.5t16 155.5h205q3 -100 -12 -185t-42 -143.5t-60.5 -108.5t-68 -90t-63.5 -76.5t-49 -79.5t-22 -89q-5 -56 2 -114q6 -67 48 -101.5t132 -34.5q78 0 122 33t50 90q6 35 6 131h228q0 -138 -11 -192 q-21 -127 -125 -196.5t-292 -69.5q-198 0 -295.5 71t-112.5 213q-8 101 -2 181zM383 1315v313h242v-313h-242z" />
<glyph unicode="&#xc0;" horiz-adv-x="1087" d="M0 0l399 1628h320l366 -1628h-249l-84 393h-418l-88 -393h-246zM272 1989h242l158 -281h-215zM385 606h317l-129 637q-4 15 -9 53.5t-8 69.5l-3 31q-15 -121 -23 -154z" />
<glyph unicode="&#xc1;" horiz-adv-x="1087" d="M0 0l399 1628h320l366 -1628h-249l-84 393h-418l-88 -393h-246zM385 606h317l-129 637q-4 15 -9 53.5t-8 69.5l-3 31q-15 -121 -23 -154zM440 1708l154 281h242l-185 -281h-211z" />
<glyph unicode="&#xc2;" horiz-adv-x="1087" d="M0 0l399 1628h320l366 -1628h-249l-84 393h-418l-88 -393h-246zM264 1712l172 281h238l172 -281h-187l-106 152l-107 -152h-182zM385 606h317l-129 637q-4 15 -9 53.5t-8 69.5l-3 31q-15 -121 -23 -154z" />
<glyph unicode="&#xc3;" horiz-adv-x="1087" d="M0 0l399 1628h320l366 -1628h-249l-84 393h-418l-88 -393h-246zM242 1716q5 123 50.5 188.5t127.5 65.5q46 0 78.5 -10.5t64.5 -42.5q19 -20 27 -27.5t22 -14.5t31 -7q28 0 43 21t19 73h147q-9 -254 -178 -254q-30 0 -45.5 1.5t-39 12t-44.5 31.5q-32 30 -50 41t-44 8 q-28 -2 -42.5 -19.5t-17.5 -66.5h-149zM385 606h317l-129 637q-4 15 -9 53.5t-8 69.5l-3 31q-15 -121 -23 -154z" />
<glyph unicode="&#xc4;" horiz-adv-x="1087" d="M0 0l399 1628h320l366 -1628h-249l-84 393h-418l-88 -393h-246zM291 1708v240h194v-240h-194zM385 606h317l-129 637q-4 15 -9 53.5t-8 69.5l-3 31q-15 -121 -23 -154zM618 1708v240h197v-240h-197z" />
<glyph unicode="&#xc5;" horiz-adv-x="1087" d="M0 0l395 1612q-57 67 -57 149q0 93 64.5 157t154.5 64q94 0 157.5 -63.5t63.5 -157.5q0 -86 -55 -147l362 -1614h-249l-84 393h-418l-88 -393h-246zM385 606h317l-129 637q-4 15 -9 53.5t-8 69.5l-3 31q-15 -121 -23 -154zM473 1761q0 -36 24.5 -64t59.5 -28q36 0 63 28 t27 64q0 39 -27 68t-63 29q-35 0 -59.5 -29t-24.5 -68z" />
<glyph unicode="&#xc6;" horiz-adv-x="1470" d="M-12 0l547 1628h905v-227h-545v-469h508v-227h-508v-478h547v-227h-783v371h-307l-112 -371h-252zM420 580h237v792q0 -2 -10 -47.5t-20 -91.5t-13 -53z" />
<glyph unicode="&#xc7;" horiz-adv-x="1116" d="M57 821q0 396 86 580q113 241 443 241q364 0 450 -303q35 -122 35 -290h-244q0 137 -28 229q-21 67 -79.5 102t-139.5 35q-153 0 -207 -115q-31 -65 -46.5 -203t-15.5 -276q0 -351 49 -483q51 -137 226 -137q147 0 202 127q41 94 41 241h244q0 -171 -57 -321 q-93 -244 -375 -264v-37q77 0 129.5 -40t52.5 -130q0 -108 -112 -159t-291 -3v111q97 -25 161 -5.5t64 72.5q0 44 -39.5 66t-105.5 22v105q-242 24 -340 209q-51 94 -77 260t-26 366z" />
<glyph unicode="&#xc8;" horiz-adv-x="980" d="M106 0v1628h818v-227h-576v-469h545v-227h-545v-478h582v-227h-824zM281 1989h241l158 -281h-215z" />
<glyph unicode="&#xc9;" horiz-adv-x="980" d="M106 0v1628h818v-227h-576v-469h545v-227h-545v-478h582v-227h-824zM389 1708l154 281h241l-184 -281h-211z" />
<glyph unicode="&#xca;" horiz-adv-x="980" d="M106 0v1628h818v-227h-576v-469h545v-227h-545v-478h582v-227h-824zM242 1712l172 281h237l172 -281h-186l-107 152l-106 -152h-182z" />
<glyph unicode="&#xcb;" horiz-adv-x="980" d="M106 0v1628h818v-227h-576v-469h545v-227h-545v-478h582v-227h-824zM266 1708v240h195v-240h-195zM594 1708v240h197v-240h-197z" />
<glyph unicode="&#xcc;" horiz-adv-x="462" d="M-47 1987h242l157 -281h-215zM106 0v1628h252v-1628h-252z" />
<glyph unicode="&#xcd;" horiz-adv-x="462" d="M106 0v1628h252v-1628h-252zM115 1708l153 281h242l-184 -281h-211z" />
<glyph unicode="&#xce;" horiz-adv-x="462" d="M-49 1710l172 281h237l172 -281h-186l-106 152l-107 -152h-182zM106 0v1628h252v-1628h-252z" />
<glyph unicode="&#xcf;" horiz-adv-x="462" d="M-29 1706v240h195v-240h-195zM106 0v1628h252v-1628h-252zM299 1706v240h197v-240h-197z" />
<glyph unicode="&#xd0;" horiz-adv-x="1110" d="M29 698v230h80v700h493q273 0 369 -166q84 -124 84 -618q0 -536 -80 -668q-47 -85 -129 -130.5t-217 -45.5h-520v698h-80zM352 209h242q70 0 114 21.5t70 70.5q23 47 32 216t9 327q0 128 -11.5 274t-33.5 187q-28 57 -72 81.5t-116 24.5h-234v-483h219v-230h-219v-489z " />
<glyph unicode="&#xd1;" horiz-adv-x="1126" d="M106 0v1628h263l426 -1063v1063h229v-1628h-252l-436 1085v-1085h-230zM270 1716q4 123 50.5 188.5t128.5 65.5q46 0 78.5 -10.5t64.5 -42.5q19 -20 27 -27.5t22 -14.5t31 -7q27 0 42 21t19 73h148q-9 -254 -179 -254q-30 0 -45.5 1.5t-39 12t-44.5 31.5q-32 30 -50 41 t-44 8q-28 -2 -42 -19.5t-17 -66.5h-150z" />
<glyph unicode="&#xd2;" d="M57 819q0 177 18 327.5t52 227.5q115 268 444 268q176 0 289 -68t158 -192q69 -188 69 -559q0 -408 -90 -606q-107 -235 -426 -235q-315 0 -424 223q-90 184 -90 614zM307 811q0 -355 66 -498q24 -50 74.5 -81t127.5 -31q140 0 205 116q31 52 47.5 202.5t16.5 295.5 q0 179 -11 288.5t-47 192.5q-27 64 -76.5 94.5t-136.5 30.5q-86 0 -133.5 -32.5t-74.5 -96.5q-26 -61 -39.5 -152.5t-16 -159.5t-2.5 -169zM315 1989h242l158 -281h-215z" />
<glyph unicode="&#xd3;" d="M57 819q0 177 18 327.5t52 227.5q115 268 444 268q176 0 289 -68t158 -192q69 -188 69 -559q0 -408 -90 -606q-107 -235 -426 -235q-315 0 -424 223q-90 184 -90 614zM307 811q0 -355 66 -498q24 -50 74.5 -81t127.5 -31q140 0 205 116q31 52 47.5 202.5t16.5 295.5 q0 179 -11 288.5t-47 192.5q-27 64 -76.5 94.5t-136.5 30.5q-86 0 -133.5 -32.5t-74.5 -96.5q-26 -61 -39.5 -152.5t-16 -159.5t-2.5 -169zM457 1708l153 281h242l-184 -281h-211z" />
<glyph unicode="&#xd4;" d="M57 819q0 177 18 327.5t52 227.5q115 268 444 268q176 0 289 -68t158 -192q69 -188 69 -559q0 -408 -90 -606q-107 -235 -426 -235q-315 0 -424 223q-90 184 -90 614zM283 1712l172 281h237l172 -281h-186l-107 152l-106 -152h-182zM307 811q0 -355 66 -498 q24 -50 74.5 -81t127.5 -31q140 0 205 116q31 52 47.5 202.5t16.5 295.5q0 179 -11 288.5t-47 192.5q-27 64 -76.5 94.5t-136.5 30.5q-86 0 -133.5 -32.5t-74.5 -96.5q-26 -61 -39.5 -152.5t-16 -159.5t-2.5 -169z" />
<glyph unicode="&#xd5;" d="M57 819q0 177 18 327.5t52 227.5q115 268 444 268q176 0 289 -68t158 -192q69 -188 69 -559q0 -408 -90 -606q-107 -235 -426 -235q-315 0 -424 223q-90 184 -90 614zM266 1714q5 123 50.5 188.5t127.5 65.5q46 0 79 -10.5t65 -42.5q19 -20 27 -27.5t22 -14.5t31 -7 q27 0 42 21t19 73h148q-9 -254 -179 -254q-30 0 -45.5 1.5t-39 12t-44.5 31.5q-32 30 -50 41t-44 8q-28 -2 -42 -19.5t-17 -66.5h-150zM307 811q0 -355 66 -498q24 -50 74.5 -81t127.5 -31q140 0 205 116q31 52 47.5 202.5t16.5 295.5q0 179 -11 288.5t-47 192.5 q-27 64 -76.5 94.5t-136.5 30.5q-86 0 -133.5 -32.5t-74.5 -96.5q-26 -61 -39.5 -152.5t-16 -159.5t-2.5 -169z" />
<glyph unicode="&#xd6;" d="M57 819q0 177 18 327.5t52 227.5q115 268 444 268q176 0 289 -68t158 -192q69 -188 69 -559q0 -408 -90 -606q-107 -235 -426 -235q-315 0 -424 223q-90 184 -90 614zM307 811q0 -355 66 -498q24 -50 74.5 -81t127.5 -31q140 0 205 116q31 52 47.5 202.5t16.5 295.5 q0 179 -11 288.5t-47 192.5q-27 64 -76.5 94.5t-136.5 30.5q-86 0 -133.5 -32.5t-74.5 -96.5q-26 -61 -39.5 -152.5t-16 -159.5t-2.5 -169zM311 1706v240h195v-240h-195zM639 1706v240h197v-240h-197z" />
<glyph unicode="&#xd7;" horiz-adv-x="829" d="M115 598l182 182l-182 181l118 122l183 -180l182 182l117 -124l-183 -181l185 -184l-119 -121l-182 182l-183 -182z" />
<glyph unicode="&#xd8;" d="M57 819q0 177 18 327.5t52 227.5q115 268 444 268q160 0 271 -57l30 70h129q-28 -64 -61 -144q52 -58 78 -129q69 -188 69 -559q0 -408 -90 -606q-107 -235 -426 -235q-155 0 -266 57l-51 -121h-135l86 201q-41 48 -58 86q-90 184 -90 614zM307 811q0 -223 31 -387 l407 938q-56 59 -172 59q-86 0 -133.5 -32.5t-74.5 -96.5q-26 -61 -39.5 -152.5t-16 -159.5t-2.5 -169zM403 266q62 -65 172 -65q140 0 205 116q31 52 47.5 202.5t16.5 295.5q0 146 -5.5 237t-25.5 165q0 1 -102.5 -236.5t-205 -475.5t-102.5 -239z" />
<glyph unicode="&#xd9;" horiz-adv-x="1122" d="M92 379v1249h242v-1220q0 -100 58.5 -153.5t170.5 -53.5q101 0 161 54t60 151v1222h244v-1257q0 -185 -126 -287t-339 -102q-216 0 -343.5 100t-127.5 297zM311 1989h242l158 -281h-215z" />
<glyph unicode="&#xda;" horiz-adv-x="1122" d="M92 379v1249h242v-1220q0 -100 58.5 -153.5t170.5 -53.5q101 0 161 54t60 151v1222h244v-1257q0 -185 -126 -287t-339 -102q-216 0 -343.5 100t-127.5 297zM434 1708l154 281h241l-184 -281h-211z" />
<glyph unicode="&#xdb;" horiz-adv-x="1122" d="M92 379v1249h242v-1220q0 -100 58.5 -153.5t170.5 -53.5q101 0 161 54t60 151v1222h244v-1257q0 -185 -126 -287t-339 -102q-216 0 -343.5 100t-127.5 297zM276 1710l173 281h237l172 -281h-186l-107 152l-106 -152h-183z" />
<glyph unicode="&#xdc;" horiz-adv-x="1122" d="M92 379v1249h242v-1220q0 -100 58.5 -153.5t170.5 -53.5q101 0 161 54t60 151v1222h244v-1257q0 -185 -126 -287t-339 -102q-216 0 -343.5 100t-127.5 297zM305 1706v240h195v-240h-195zM633 1706v240h196v-240h-196z" />
<glyph unicode="&#xdd;" horiz-adv-x="1110" d="M2 1628h250l299 -792l315 792h244l-440 -1048v-580h-248v575zM416 1706l153 281h242l-184 -281h-211z" />
<glyph unicode="&#xde;" horiz-adv-x="1079" d="M106 0v1628h252l2 -276h293q254 0 320 -197q61 -101 61 -311q0 -213 -59 -314q-73 -186 -320 -192h-301v-338h-248zM354 551h250q142 0 168 141q12 37 12 146q0 95 -10 131q-12 88 -51.5 122.5t-114.5 34.5h-254v-575z" />
<glyph unicode="&#xdf;" horiz-adv-x="1323" d="M18 926v200h136v203q0 152 98.5 234t282.5 82q150 0 247 -77t97 -210q0 -54 -17.5 -102t-43 -84t-51 -71t-43 -79.5t-17.5 -93.5q0 -19 2 -36t9.5 -31t12 -24.5t18 -21.5t19 -17t24.5 -16t24.5 -13t29 -13.5t28.5 -12.5q88 -38 164 -75q126 -59 191 -142.5t65 -210.5 q0 -158 -96.5 -244.5t-300.5 -86.5q-189 0 -287.5 57t-117.5 176q-3 28 -9 154h232q0 -64 4 -109q17 -104 176 -104q91 0 130.5 34.5t39.5 110.5q0 70 -32 110t-126 87q-28 15 -72 34t-65 29q-37 18 -51 25t-46.5 24t-46 26.5t-39 28.5t-36.5 34t-27 37.5t-23 45.5 t-12.5 52.5t-5.5 62.5q0 56 16.5 104.5t39.5 84t46 68t39.5 71.5t16.5 80q0 67 -28 103t-95 36q-75 0 -105 -36t-30 -110v-1300h-229v926h-136z" />
<glyph unicode="&#xe0;" horiz-adv-x="927" d="M49 309q0 196 122 290.5t370 94.5q22 0 94 -2q0 122 -2 142q-9 110 -154 110q-99 0 -135 -41.5t-39 -126.5h-211q0 182 91.5 276.5t306.5 94.5q333 0 356 -266q8 -173 4 -363q0 -48 -1 -167t-1 -156q0 -163 16 -195h-209q-3 0 -6.5 12.5t-6.5 35t-3 46.5 q-45 -52 -108.5 -78t-163.5 -26q-158 0 -239 75.5t-81 243.5zM227 1487h242l158 -281h-215zM270 311q0 -73 41.5 -108t110.5 -35q204 0 217 248v102q-50 4 -98 4q-140 0 -205.5 -50t-65.5 -161z" />
<glyph unicode="&#xe1;" horiz-adv-x="927" d="M49 309q0 196 122 290.5t370 94.5q22 0 94 -2q0 122 -2 142q-9 110 -154 110q-99 0 -135 -41.5t-39 -126.5h-211q0 182 91.5 276.5t306.5 94.5q333 0 356 -266q8 -173 4 -363q0 -48 -1 -167t-1 -156q0 -163 16 -195h-209q-3 0 -6.5 12.5t-6.5 35t-3 46.5 q-45 -52 -108.5 -78t-163.5 -26q-158 0 -239 75.5t-81 243.5zM270 311q0 -73 41.5 -108t110.5 -35q204 0 217 248v102q-50 4 -98 4q-140 0 -205.5 -50t-65.5 -161zM352 1206l154 281h242l-185 -281h-211z" />
<glyph unicode="&#xe2;" horiz-adv-x="927" d="M49 309q0 196 122 290.5t370 94.5q22 0 94 -2q0 122 -2 142q-9 110 -154 110q-99 0 -135 -41.5t-39 -126.5h-211q0 182 91.5 276.5t306.5 94.5q333 0 356 -266q8 -173 4 -363q0 -48 -1 -167t-1 -156q0 -163 16 -195h-209q-3 0 -6.5 12.5t-6.5 35t-3 46.5 q-45 -52 -108.5 -78t-163.5 -26q-158 0 -239 75.5t-81 243.5zM188 1210l172 281h238l172 -281h-186l-107 152l-106 -152h-183zM270 311q0 -73 41.5 -108t110.5 -35q204 0 217 248v102q-50 4 -98 4q-140 0 -205.5 -50t-65.5 -161z" />
<glyph unicode="&#xe3;" horiz-adv-x="927" d="M49 309q0 196 122 290.5t370 94.5q22 0 94 -2q0 122 -2 142q-9 110 -154 110q-99 0 -135 -41.5t-39 -126.5h-211q0 182 91.5 276.5t306.5 94.5q333 0 356 -266q8 -173 4 -363q0 -48 -1 -167t-1 -156q0 -163 16 -195h-209q-3 0 -6.5 12.5t-6.5 35t-3 46.5 q-45 -52 -108.5 -78t-163.5 -26q-158 0 -239 75.5t-81 243.5zM160 1214q5 123 50.5 188.5t127.5 65.5q46 0 78.5 -10.5t64.5 -42.5q19 -20 27 -27.5t22 -14.5t31 -7q28 0 43 21t19 73h147q-9 -254 -178 -254q-30 0 -45.5 1.5t-39 12t-44.5 31.5q-32 30 -50 41t-44 8 q-28 -2 -42.5 -19.5t-17.5 -66.5h-149zM270 311q0 -73 41.5 -108t110.5 -35q204 0 217 248v102q-50 4 -98 4q-140 0 -205.5 -50t-65.5 -161z" />
<glyph unicode="&#xe4;" horiz-adv-x="927" d="M49 309q0 196 122 290.5t370 94.5q22 0 94 -2q0 122 -2 142q-9 110 -154 110q-99 0 -135 -41.5t-39 -126.5h-211q0 182 91.5 276.5t306.5 94.5q333 0 356 -266q8 -173 4 -363q0 -48 -1 -167t-1 -156q0 -163 16 -195h-209q-3 0 -6.5 12.5t-6.5 35t-3 46.5 q-45 -52 -108.5 -78t-163.5 -26q-158 0 -239 75.5t-81 243.5zM219 1206v240h195v-240h-195zM270 311q0 -73 41.5 -108t110.5 -35q204 0 217 248v102q-50 4 -98 4q-140 0 -205.5 -50t-65.5 -161zM547 1206v240h196v-240h-196z" />
<glyph unicode="&#xe5;" horiz-adv-x="927" d="M49 309q0 196 122 290.5t370 94.5q22 0 94 -2q0 122 -2 142q-9 110 -154 110q-99 0 -135 -41.5t-39 -126.5h-211q0 182 91.5 276.5t306.5 94.5q333 0 356 -266q8 -173 4 -363q0 -48 -1 -167t-1 -156q0 -163 16 -195h-209q-3 0 -6.5 12.5t-6.5 35t-3 46.5 q-45 -52 -108.5 -78t-163.5 -26q-158 0 -239 75.5t-81 243.5zM256 1384q0 93 64.5 157.5t154.5 64.5q94 0 157.5 -64t63.5 -158q0 -91 -64 -156t-157 -65q-89 0 -154 65t-65 156zM270 311q0 -73 41.5 -108t110.5 -35q204 0 217 248v102q-50 4 -98 4q-140 0 -205.5 -50 t-65.5 -161zM391 1384q0 -36 24.5 -64t59.5 -28q36 0 63 28t27 64q0 39 -27 68t-63 29q-35 0 -59.5 -29t-24.5 -68z" />
<glyph unicode="&#xe6;" horiz-adv-x="1499" d="M51 215q-8 68 0 152q11 135 97.5 211t281.5 100q94 11 205 8q0 128 -2 148q-9 110 -154 110q-108 0 -147 -70q-29 -52 -29 -139h-213q0 158 45 240q93 172 357 172q64 0 114 -12.5t82 -35.5t49 -41.5t33 -43.5q11 24 30.5 45t52.5 42t86 33.5t120 12.5q134 0 222.5 -52 t131.5 -137q37 -79 50 -192t7 -291h-612q0 -116 39 -207q18 -42 62 -64t102 -22q109 0 151 56q39 52 39 124h213q0 -56 -23.5 -126t-66.5 -125q-101 -127 -313 -127q-119 0 -205 42t-127 115q-117 -151 -360 -151q-129 0 -215.5 55t-102.5 170zM272 350q-4 -63 9 -106 q11 -38 49.5 -57t91.5 -19q109 0 172 74q24 29 33 67t12 107v106q-80 5 -133 0q-109 -7 -172 -49q-27 -18 -43.5 -52t-18.5 -71zM854 653h397q0 46 -8.5 114.5t-23.5 94.5q-49 86 -162 86q-110 0 -162 -78q-41 -62 -41 -217z" />
<glyph unicode="&#xe7;" horiz-adv-x="917" d="M47 565q0 254 82 406q47 86 134 131t204 45q299 0 377 -219q28 -69 28 -230h-217q0 79 -22 136q-21 54 -58.5 79t-103.5 25q-118 0 -158 -94q-23 -55 -31 -118t-8 -163q0 -207 41 -289q21 -47 60.5 -67.5t101.5 -20.5q129 0 160 86q22 60 22 146h213q0 -145 -49 -252 q-73 -161 -293 -178v-35q77 0 130 -40t53 -130q0 -108 -112.5 -159t-291.5 -3v111q97 -25 161.5 -5.5t64.5 72.5q0 44 -40 66t-106 22v105q-177 21 -252 141q-44 65 -67 180t-23 252z" />
<glyph unicode="&#xe8;" horiz-adv-x="917" d="M49 561q0 262 62 383q102 203 360 203q134 0 222.5 -52t131.5 -137q37 -79 50.5 -193.5t7.5 -291.5h-613q8 -154 51 -222.5t152 -68.5q110 0 152 56q39 52 39 124h213q0 -55 -24 -125.5t-67 -125.5q-101 -127 -313 -127q-254 0 -356 188q-68 127 -68 389zM193 1487h241 l158 -281h-215zM266 655h398q0 44 -9 112.5t-24 94.5q-49 86 -162 86q-110 0 -162 -78q-41 -62 -41 -215z" />
<glyph unicode="&#xe9;" horiz-adv-x="917" d="M49 561q0 262 62 383q102 203 360 203q134 0 222.5 -52t131.5 -137q37 -79 50.5 -193.5t7.5 -291.5h-613q8 -154 51 -222.5t152 -68.5q110 0 152 56q39 52 39 124h213q0 -55 -24 -125.5t-67 -125.5q-101 -127 -313 -127q-254 0 -356 188q-68 127 -68 389zM266 655h398 q0 44 -9 112.5t-24 94.5q-49 86 -162 86q-110 0 -162 -78q-41 -62 -41 -215zM340 1206l154 281h241l-184 -281h-211z" />
<glyph unicode="&#xea;" horiz-adv-x="917" d="M49 561q0 262 62 383q102 203 360 203q134 0 222.5 -52t131.5 -137q37 -79 50.5 -193.5t7.5 -291.5h-613q8 -154 51 -222.5t152 -68.5q110 0 152 56q39 52 39 124h213q0 -55 -24 -125.5t-67 -125.5q-101 -127 -313 -127q-254 0 -356 188q-68 127 -68 389zM182 1210 l172 281h238l172 -281h-186l-107 152l-106 -152h-183zM266 655h398q0 44 -9 112.5t-24 94.5q-49 86 -162 86q-110 0 -162 -78q-41 -62 -41 -215z" />
<glyph unicode="&#xeb;" horiz-adv-x="917" d="M49 561q0 262 62 383q102 203 360 203q134 0 222.5 -52t131.5 -137q37 -79 50.5 -193.5t7.5 -291.5h-613q8 -154 51 -222.5t152 -68.5q110 0 152 56q39 52 39 124h213q0 -55 -24 -125.5t-67 -125.5q-101 -127 -313 -127q-254 0 -356 188q-68 127 -68 389zM211 1206v240 h195v-240h-195zM266 655h398q0 44 -9 112.5t-24 94.5q-49 86 -162 86q-110 0 -162 -78q-41 -62 -41 -215zM539 1206v240h196v-240h-196z" />
<glyph unicode="&#xec;" horiz-adv-x="407" d="M-76 1487h242l158 -281h-215zM88 92v1034h229v-1026q0 -89 11 -100h-228q-12 6 -12 92z" />
<glyph unicode="&#xed;" horiz-adv-x="407" d="M88 92v1034h229v-1026q0 -89 11 -100h-228q-12 6 -12 92zM88 1206l154 281h241l-184 -281h-211z" />
<glyph unicode="&#xee;" horiz-adv-x="407" d="M-82 1210l172 281h238l172 -281h-187l-106 152l-107 -152h-182zM88 92v1034h229v-1026q0 -89 11 -100h-228q-12 6 -12 92z" />
<glyph unicode="&#xef;" horiz-adv-x="407" d="M-57 1206v240h194v-240h-194zM88 92v1034h229v-1026q0 -89 11 -100h-228q-12 6 -12 92zM270 1206v240h197v-240h-197z" />
<glyph unicode="&#xf0;" horiz-adv-x="970" d="M48.5 535q1.5 206 35.5 311q82 201 330 201q97 0 161.5 -30t112.5 -87q0 116 -16 223q-48 -23 -78 -23q-58 0 -99.5 37.5t-54.5 108.5l80 31q9 -45 26 -64.5t48 -19.5q38 0 70 26q-6 52 -13 80q-32 137 -172 137q-71 0 -107 -22.5t-48 -69.5q-5 -30 -5 -45h-223 q0 36 13 90q26 101 116.5 163.5t259.5 62.5q151 0 243 -68t126 -182q5 -15 16 -60q40 23 78 23q60 0 101 -40t55 -108l-78 -34q-16 90 -78 90q-10 0 -19 -2.5t-12 -4t-13.5 -9.5t-12.5 -9q33 -212 33 -369q0 -147 -9 -324t-30 -261q-41 -151 -138.5 -227t-267.5 -76 q-157 0 -256.5 56.5t-142.5 184.5q-33 104 -31.5 310zM287.5 534q-3.5 -177 13.5 -231q18 -65 62.5 -95t117.5 -30q169 0 193 162q6 40 11 176t5 209q-16 52 -66.5 95.5t-138.5 43.5q-131 0 -176 -102q-18 -51 -21.5 -228z" />
<glyph unicode="&#xf1;" horiz-adv-x="935" d="M84 0v1126h219v-133q28 76 102.5 114t169.5 38q283 0 283 -295q0 -848 4 -850h-221q-6 0 -7 99t-1 679q0 148 -146 148q-76 0 -127 -47t-51 -138v-741h-225zM170 1214q5 123 50.5 188.5t127.5 65.5q46 0 79 -10.5t65 -42.5q19 -21 26.5 -28t21.5 -14t31 -7q28 0 43 21 t19 73h147q-9 -254 -178 -254q-30 0 -45.5 1.5t-39 12t-44.5 31.5q-32 30 -50 41t-44 8q-28 -2 -42.5 -19.5t-17.5 -66.5h-149z" />
<glyph unicode="&#xf2;" horiz-adv-x="958" d="M49 565q0 255 74 391q48 88 137 139.5t221 51.5q134 0 223.5 -51t131.5 -138q73 -153 73 -393q0 -233 -73 -385q-43 -92 -135 -143t-222 -51q-259 0 -354 188q-35 62 -55.5 170.5t-20.5 220.5zM203 1487h241l158 -281h-215zM274 565q0 -196 37 -280q42 -95 170 -95 q124 0 168 95q18 43 28.5 122t10.5 158q0 208 -37 283q-42 92 -170 92q-126 0 -170 -100q-37 -81 -37 -275z" />
<glyph unicode="&#xf3;" horiz-adv-x="958" d="M49 565q0 255 74 391q48 88 137 139.5t221 51.5q134 0 223.5 -51t131.5 -138q73 -153 73 -393q0 -233 -73 -385q-43 -92 -135 -143t-222 -51q-259 0 -354 188q-35 62 -55.5 170.5t-20.5 220.5zM274 565q0 -196 37 -280q42 -95 170 -95q124 0 168 95q18 43 28.5 122 t10.5 158q0 208 -37 283q-42 92 -170 92q-126 0 -170 -100q-37 -81 -37 -275zM354 1206l154 281h242l-185 -281h-211z" />
<glyph unicode="&#xf4;" horiz-adv-x="958" d="M49 565q0 255 74 391q48 88 137 139.5t221 51.5q134 0 223.5 -51t131.5 -138q73 -153 73 -393q0 -233 -73 -385q-43 -92 -135 -143t-222 -51q-259 0 -354 188q-35 62 -55.5 170.5t-20.5 220.5zM193 1210l172 281h237l172 -281h-186l-107 152l-106 -152h-182zM274 565 q0 -196 37 -280q42 -95 170 -95q124 0 168 95q18 43 28.5 122t10.5 158q0 208 -37 283q-42 92 -170 92q-126 0 -170 -100q-37 -81 -37 -275z" />
<glyph unicode="&#xf5;" horiz-adv-x="958" d="M49 565q0 255 74 391q48 88 137 139.5t221 51.5q134 0 223.5 -51t131.5 -138q73 -153 73 -393q0 -233 -73 -385q-43 -92 -135 -143t-222 -51q-259 0 -354 188q-35 62 -55.5 170.5t-20.5 220.5zM174 1214q5 123 50.5 188.5t127.5 65.5q46 0 79 -10.5t65 -42.5 q19 -21 26.5 -28t21.5 -14t31 -7q28 0 43 21t19 73h147q-9 -254 -178 -254q-30 0 -45.5 1.5t-39 12t-44.5 31.5q-32 30 -50 41t-44 8q-28 -2 -42 -19.5t-17 -66.5h-150zM274 565q0 -196 37 -280q42 -95 170 -95q124 0 168 95q18 43 28.5 122t10.5 158q0 208 -37 283 q-42 92 -170 92q-126 0 -170 -100q-37 -81 -37 -275z" />
<glyph unicode="&#xf6;" horiz-adv-x="958" d="M49 565q0 255 74 391q48 88 137 139.5t221 51.5q134 0 223.5 -51t131.5 -138q73 -153 73 -393q0 -233 -73 -385q-43 -92 -135 -143t-222 -51q-259 0 -354 188q-35 62 -55.5 170.5t-20.5 220.5zM219 1206v240h195v-240h-195zM274 565q0 -196 37 -280q42 -95 170 -95 q124 0 168 95q18 43 28.5 122t10.5 158q0 208 -37 283q-42 92 -170 92q-126 0 -170 -100q-37 -81 -37 -275zM547 1206v240h196v-240h-196z" />
<glyph unicode="&#xf7;" horiz-adv-x="878" d="M47 727v178h784v-178h-784zM344 414v182h193v-182h-193zM344 1034v185h193v-185h-193z" />
<glyph unicode="&#xf8;" horiz-adv-x="954" d="M47 565q0 255 74 391q48 88 137 139.5t221 51.5q119 0 207 -43l35 72h115l-66 -129q46 -46 64 -89q73 -153 73 -393q0 -233 -73 -385q-43 -92 -135 -143t-222 -51q-125 0 -213 45l-41 -82h-108l69 139q-38 41 -61 86q-35 62 -55.5 170.5t-20.5 220.5zM268 565 q0 -147 29 -248l297 601q-42 26 -115 26q-126 0 -170 -100q-19 -42 -30 -123t-11 -156zM358 219q44 -33 121 -33q124 0 168 95q19 44 31 126t12 158q0 156 -31 258z" />
<glyph unicode="&#xf9;" horiz-adv-x="933" d="M74 1126h1h1h1h1h1h1h1h1h1h1h1h1h1h1h1h1h1h1h1h1h1h1h1h1h1h1h1h1h1h1h1h1h1h1h1h1h1h1h1h2h1h1h1h1h1h1h1h1h1h2h1h1h1h1h1h2h1h1h1h2h1h1h1h2h1h1h1h2h1h1h2h1h1h2h1h1h2h1h2h1h1h2h1h2h1h1h2h1h2h1h2h1h2h1h2h1h2h1h2h1h2h1h2h1h2h2h1h2h1h2h2h1h2h1h2h2h1h2h2h1h2 h2h1h2h2h1h2h2h1h2h2h2h1h2h2h2h1h2h2h2h2h1h2h2h2h2h1h2h2h2h2h2h2h1h2h2h2h10q4 0 4 -804q0 -74 39.5 -110t108.5 -36q84 0 130 44.5t46 125.5v780h223v-972q0 -112 6 -154h-217l-6 109q-71 -121 -270 -121q-125 0 -205 68.5t-80 195.5q0 868 -6 874zM203 1487h241 l158 -281h-215z" />
<glyph unicode="&#xfa;" horiz-adv-x="933" d="M74 1126h1h1h1h1h1h1h1h1h1h1h1h1h1h1h1h1h1h1h1h1h1h1h1h1h1h1h1h1h1h1h1h1h1h1h1h1h1h1h1h2h1h1h1h1h1h1h1h1h1h2h1h1h1h1h1h2h1h1h1h2h1h1h1h2h1h1h1h2h1h1h2h1h1h2h1h1h2h1h2h1h1h2h1h2h1h1h2h1h2h1h2h1h2h1h2h1h2h1h2h1h2h1h2h1h2h2h1h2h1h2h2h1h2h1h2h2h1h2h2h1h2 h2h1h2h2h1h2h2h1h2h2h2h1h2h2h2h1h2h2h2h2h1h2h2h2h2h1h2h2h2h2h2h2h1h2h2h2h10q4 0 4 -804q0 -74 39.5 -110t108.5 -36q84 0 130 44.5t46 125.5v780h223v-972q0 -112 6 -154h-217l-6 109q-71 -121 -270 -121q-125 0 -205 68.5t-80 195.5q0 868 -6 874zM342 1206l154 281 h241l-184 -281h-211z" />
<glyph unicode="&#xfb;" horiz-adv-x="933" d="M74 1126h1h1h1h1h1h1h1h1h1h1h1h1h1h1h1h1h1h1h1h1h1h1h1h1h1h1h1h1h1h1h1h1h1h1h1h1h1h1h1h2h1h1h1h1h1h1h1h1h1h2h1h1h1h1h1h2h1h1h1h2h1h1h1h2h1h1h1h2h1h1h2h1h1h2h1h1h2h1h2h1h1h2h1h2h1h1h2h1h2h1h2h1h2h1h2h1h2h1h2h1h2h1h2h1h2h2h1h2h1h2h2h1h2h1h2h2h1h2h2h1h2 h2h1h2h2h1h2h2h1h2h2h2h1h2h2h2h1h2h2h2h2h1h2h2h2h2h1h2h2h2h2h2h2h1h2h2h2h10q4 0 4 -804q0 -74 39.5 -110t108.5 -36q84 0 130 44.5t46 125.5v780h223v-972q0 -112 6 -154h-217l-6 109q-71 -121 -270 -121q-125 0 -205 68.5t-80 195.5q0 868 -6 874zM176 1210l172 281 h238l172 -281h-187l-106 152l-107 -152h-182z" />
<glyph unicode="&#xfc;" horiz-adv-x="933" d="M74 1126h1h1h1h1h1h1h1h1h1h1h1h1h1h1h1h1h1h1h1h1h1h1h1h1h1h1h1h1h1h1h1h1h1h1h1h1h1h1h1h2h1h1h1h1h1h1h1h1h1h2h1h1h1h1h1h2h1h1h1h2h1h1h1h2h1h1h1h2h1h1h2h1h1h2h1h1h2h1h2h1h1h2h1h2h1h1h2h1h2h1h2h1h2h1h2h1h2h1h2h1h2h1h2h1h2h2h1h2h1h2h2h1h2h1h2h2h1h2h2h1h2 h2h1h2h2h1h2h2h1h2h2h2h1h2h2h2h1h2h2h2h2h1h2h2h2h2h1h2h2h2h2h2h2h1h2h2h2h10q4 0 4 -804q0 -74 39.5 -110t108.5 -36q84 0 130 44.5t46 125.5v780h223v-972q0 -112 6 -154h-217l-6 109q-71 -121 -270 -121q-125 0 -205 68.5t-80 195.5q0 868 -6 874zM199 1206v240h194 v-240h-194zM526 1206v240h197v-240h-197z" />
<glyph unicode="&#xfd;" horiz-adv-x="923" d="M8 1126h236q198 -686 225 -790l215 790h231l-448 -1468h-236l113 371zM324 1206l153 281h242l-184 -281h-211z" />
<glyph unicode="&#xfe;" horiz-adv-x="964" d="M86 -342v1976h219v-626q25 61 98.5 99t174.5 38q102 0 168.5 -38t107.5 -120q72 -138 72 -405q0 -300 -70 -422q-37 -77 -113 -121.5t-172 -44.5q-193 0 -264 102l2 -438h-223zM303 571q0 -127 10 -195t33 -116q48 -74 154 -74q123 0 166 93q32 82 32 292q0 214 -45 297 q-44 74 -153 74q-101 0 -146 -82q-51 -122 -51 -289z" />
<glyph unicode="&#xff;" horiz-adv-x="923" d="M8 1126h236q198 -686 225 -790l215 790h231l-448 -1468h-236l113 371zM207 1206v240h194v-240h-194zM535 1206v240h196v-240h-196z" />
<glyph unicode="&#x152;" horiz-adv-x="1628" d="M55 819q0 150 16 303.5t44 218.5q58 154 162.5 227.5t275.5 73.5q87 0 154.5 -25.5t95.5 -62.5v74h788v-227h-565v-469h533v-227h-533v-478h569v-227h-776q0 -2 -2 68q-78 -86 -258 -86q-168 0 -283.5 75.5t-160.5 223.5q-23 66 -41.5 232t-18.5 306zM307 811 q0 -125 12 -270t33 -197q63 -149 226 -149q85 0 137.5 28t66.5 72q6 41 6 522q0 438 -6 481q-43 125 -207 125q-90 0 -142.5 -37t-80.5 -110q-19 -52 -32 -199t-13 -266z" />
<glyph unicode="&#x153;" horiz-adv-x="1550" d="M47 565q0 255 74 391q48 88 137 139.5t221 51.5q240 0 316 -160q31 74 108.5 117t198.5 43q134 0 222.5 -52t131.5 -137q37 -79 50 -192t7 -291h-612q0 -120 39 -211q18 -42 62 -64t102 -22q109 0 151 55q39 52 39 129h213q0 -56 -23.5 -126t-66.5 -125 q-101 -127 -313 -127q-117 0 -201 44t-115 113q-74 -155 -311 -155q-259 0 -354 188q-35 62 -55.5 170.5t-20.5 220.5zM272 565q0 -200 37 -284q42 -95 170 -95q124 0 168 95q18 42 28.5 123.5t10.5 160.5q0 212 -37 287q-42 92 -170 92q-126 0 -170 -100q-37 -81 -37 -279z M897 653h397q0 46 -8.5 116.5t-23.5 96.5q-49 86 -162 86q-110 0 -162 -78q-41 -62 -41 -221z" />
<glyph unicode="&#x178;" horiz-adv-x="1110" d="M2 1628h250l299 -792l315 792h244l-440 -1048v-580h-248v575zM305 1706v240h195v-240h-195zM633 1706v240h196v-240h-196z" />
<glyph unicode="&#x2c6;" horiz-adv-x="759" d="M90 1210l172 281h238l172 -281h-187l-106 152l-107 -152h-182z" />
<glyph unicode="&#x2dc;" horiz-adv-x="759" d="M74 1214q5 123 50.5 188.5t127.5 65.5q46 0 78.5 -10.5t64.5 -42.5q19 -20 27 -27.5t22 -14.5t31 -7q28 0 43 21t19 73h147q-9 -254 -178 -254q-30 0 -45.5 1.5t-39 12t-44.5 31.5q-32 30 -50 41t-44 8q-28 -2 -42.5 -19.5t-17.5 -66.5h-149z" />
<glyph unicode="&#x2000;" horiz-adv-x="996" />
<glyph unicode="&#x2001;" horiz-adv-x="1993" />
<glyph unicode="&#x2002;" horiz-adv-x="996" />
<glyph unicode="&#x2003;" horiz-adv-x="1993" />
<glyph unicode="&#x2004;" horiz-adv-x="664" />
<glyph unicode="&#x2005;" horiz-adv-x="498" />
<glyph unicode="&#x2006;" horiz-adv-x="332" />
<glyph unicode="&#x2007;" horiz-adv-x="332" />
<glyph unicode="&#x2008;" horiz-adv-x="249" />
<glyph unicode="&#x2009;" horiz-adv-x="398" />
<glyph unicode="&#x200a;" horiz-adv-x="110" />
<glyph unicode="&#x2010;" horiz-adv-x="700" d="M27 670v233h649v-233h-649z" />
<glyph unicode="&#x2011;" horiz-adv-x="700" d="M27 670v233h649v-233h-649z" />
<glyph unicode="&#x2012;" horiz-adv-x="700" d="M27 670v233h649v-233h-649z" />
<glyph unicode="&#x2013;" horiz-adv-x="757" d="M37 598v223h684v-223h-684z" />
<glyph unicode="&#x2014;" horiz-adv-x="1126" d="M96 598v223h932v-223h-932z" />
<glyph unicode="&#x2018;" horiz-adv-x="378" d="M61 1108v326l164 208l113 -71l-76 -139l6 -9h58v-315h-265z" />
<glyph unicode="&#x2019;" horiz-adv-x="378" d="M45 1165l78 142l-8 6h-58v317h267v-327l-166 -207z" />
<glyph unicode="&#x201a;" horiz-adv-x="378" d="M45 -150l78 144l-8 6h-58v315h267v-323l-166 -211z" />
<glyph unicode="&#x201c;" horiz-adv-x="718" d="M63 1108v317l166 217l111 -71l-82 -148l6 -6h55v-309h-256zM406 1108v317l163 217l113 -71l-82 -148l6 -8h53v-307h-253z" />
<glyph unicode="&#x201d;" horiz-adv-x="718" d="M47 1165l82 150l-6 6h-55v309h256v-319l-166 -215zM389 1165l82 150l-8 6h-53v309h254v-319l-164 -215z" />
<glyph unicode="&#x201e;" horiz-adv-x="718" d="M47 -156l82 150l-6 6h-55v309h256v-319l-166 -217zM389 -156l82 150l-8 6h-53v309h254v-319l-164 -217z" />
<glyph unicode="&#x2022;" horiz-adv-x="710" d="M154 745q0 87 59 147t143 60q85 0 145 -60t60 -147q0 -85 -60 -145.5t-145 -60.5q-83 0 -142.5 60.5t-59.5 145.5z" />
<glyph unicode="&#x2026;" horiz-adv-x="1490" d="M113 0v330h270v-330h-270zM608 0v330h273v-330h-273zM1104 0v330h272v-330h-272z" />
<glyph unicode="&#x202f;" horiz-adv-x="398" />
<glyph unicode="&#x2039;" horiz-adv-x="487" d="M35 641v160l422 399v-252l-244 -225l244 -227v-254z" />
<glyph unicode="&#x203a;" horiz-adv-x="487" d="M33 242v254l246 227l-246 225v252l422 -399v-160z" />
<glyph unicode="&#x205f;" horiz-adv-x="498" />
<glyph unicode="&#x20ac;" horiz-adv-x="1079" d="M23 631v149h110v60h-110v149h110q4 201 21 311q26 159 131 250.5t301 91.5q195 0 307.5 -93t124.5 -249q9 -119 12 -223h-237q0 71 -9 172q-22 176 -200 176q-174 0 -193 -176q-10 -77 -16 -260h352v-149h-354v-60h354v-149h-352q3 -215 14 -266q27 -172 197 -172 q85 0 131.5 42.5t60.5 129.5q6 40 10 161h240q-6 -107 -16 -186q-34 -182 -139 -269t-289 -87q-189 0 -289.5 85t-134.5 271q-16 86 -23 291h-114z" />
<glyph unicode="&#x2122;" horiz-adv-x="1417" d="M10 1477v157h494v-157h-176v-207q0 -74 75 -74q62 0 72 2v-145q-52 -9 -135 -9q-80 0 -129 40.5t-49 113.5v279h-152zM553 1051v583h170v-92q14 49 60 76t106 27t96 -29t47 -76q16 54 63.5 79.5t106.5 25.5q88 0 130 -49.5t42 -120.5v-424h-178v350q0 78 -68 78 q-35 0 -57 -30.5t-22 -72.5v-325h-172v356q0 34 -18 53t-50 19q-36 0 -60 -33t-24 -78v-317h-172z" />
<glyph unicode="&#x25fc;" horiz-adv-x="1126" d="M0 0v1126h1126v-1126h-1126z" />
<glyph unicode="&#xfb03;" horiz-adv-x="1513" d="M18 926v200h132v248q0 126 64 198.5t204 72.5q84 0 164 -11v-194q-48 6 -99 6q-110 0 -110 -107v-215h293v226q0 61 15 112.5t45.5 93t83.5 65.5t124 24q82 0 162 -11v-194q-60 6 -101 6q-106 0 -106 -98v-224h528v-1024q0 -37 5 -67t10 -33h-226q-18 7 -18 92v834h-297 v-926h-225v926h-291v-926h-225v926h-132z" />
<glyph unicode="&#xfb04;" horiz-adv-x="1507" d="M18 926v200h132v248q0 126 64 198.5t204 72.5q84 0 164 -11v-194q-48 6 -99 6q-110 0 -110 -107v-215h293v226q0 61 15 112.5t45.5 93t83.5 65.5t124 24q88 0 168 -11v-194q-60 6 -107 6q-106 0 -106 -98v-224h203v-198h-201v-926h-225v926h-291v-926h-225v926h-132z M1186 1634h225q6 -24 6 -82v-1458q0 -84 13 -94h-226q-12 6 -12 76v1452q0 85 -6 106z" />
</font>
</defs>
</svg>
